<svg id="Layer_1" xmlns="http://www.w3.org/2000/svg" width="413" height="657">
  <path class="fil0" d="M95.759 609.489c-.836 3.025-1.641 7.094-1.439 10.801 4.732-3.025 15.737-.25 19.657 2.385-3.641-4.014-11.845-5.803-14.618-6.346-1.449-1.149-2.427-3.299-3.6-6.84zM173.949 392.866c-1.456-.766-2.052-1.506-2.709-.855-4.813 4.773-6.803 9.652-3.72 20.525-.1-10.454 1.325-14.167 6.429-19.67zM88.199 389.168c4.51-1.51 15.308-11.094 16.92-17.279-6.651 5.066-12.263 12.48-23.04 12.24-.583 3.584 2.355 5.655 6.12 5.039zM101.567 541.368c-1.887 1.098-2.232 4.361.652 3.34 2.495-.885 4.938-4.311 14.293-5.664-5.333-.325-11.742.46-14.945 2.324zM98.765 357.135c7.626-1.059 8.935-3.898-.126-3.605-18.74.338-30.691 19.926-21.082 20.574 3.744.252 3.928-3.922 5.602-6.535 3.285-5.131 8.803-9.489 15.606-10.434zM159.224 416.815c-11.535 3.938-22.084 12.385-24.055 21.441l3.056 1.486c.677-6.404 5.174-13.941 20.999-22.927zM104.494 536.762c4.888-1.262 11.697-4.064 17.616-1.596-5.168-5.459-23-6.924-23.483-1.031-.349 4.236 4.441 2.994 5.867 2.627zM132.238 442.672l-.439-2.67c-6.881.117-13.354 2.438-17.597 5.637 4.291-1.109 12.572-3.342 18.036-2.967zM94.95 370.584c4.127-2.701 8.147-5.203 11.25-8.775-5.391.902-10.835 2.211-14.713 5.223-6.27 4.867-1.917 7.074 3.463 3.552zM260.781 432.889c11.128-2.256 18.571 2.73 22.395 6.992.321-1.146 1.17-2.068.303-2.811-7.486-6.785-16.218-8.411-22.698-4.181zM332.999 356.77c3.41-1.92-1.056-6.475-2.52-7.561-1.654-1.229-10.154-11.322-10.44-11.881.271 5.262 9.103 21.612 12.96 19.442z"/>
  <path class="fil0" d="M341.278 353.168c-3.084-5.244-7.015-12.738-11.607-16.822-6.03-5.363-9.689-2.561-4.765 3.477 7.432 5.352 26.56 31.414 9.252 35.621-4.306 1.049-7.022-2.395-8.719-4.635 3.453 14.822 26.375 8.092 19.978-15.49-.236-2.647-2.445-2.791-4.139-2.151zM97.348 10.883C92.642 8.88 93.12 16.05 83.771 22.535c4.862 5.745 19.296-9.216 13.577-11.652zM64.004 23.807c-2.675 3.698 18.969 5.734 17.841-.107-5.744.501-15.671-2.893-17.841.107zM238.117 413.67c8.11 2.092 16.635 6.209 19.505 17.062l2.337-2.311c-2.246-8.628-13.634-15.833-21.842-14.751zM243.473 406.131c1.441-6.373-.587-17.957-4.657-24.984 1.63 6.873 3.84 20.525-.282 25.922 1.668.109 4.095-.221 4.939-.938z"/>
  <path class="fil0" d="M322.199 325.449c6.712 2.32 11.575 8.747 14.399 14.76 1.393 2.963 2.949 9.139 6.48 7.92 5.402-1.865-4.236-13.186-9-18-4.104-4.149-16.06-12.642-23.761-2.52 2.788-2.958 8.078-3.474 11.882-2.16zM327.242 481.912c7.045-.887 4.366-6.15-1.878-4.055-5.805 1.947-13.84 9.018-13.245 16.791 5.087-8.656 11.121-11.648 15.123-12.736z"/>
  <path class="fil0" d="M320.399 495.008c2.818-2.918 5.477-7.18 10.964-8.396 1.761-.797 4.951-.471 4.675-2.641-.149-1.172-2.189-1.891-4.525-1.471-3.798.682-10.915 6.274-11.114 12.508zM307.172 545.323c6.028-8.754 16.356-11.775 26.548-9.994-9.805-3.057-20.166.557-25.561 5.76-.875.844-3.84 3.828-3.826 5.584.7 2.374 2.437-.768 2.839-1.35zM103.679 562.328c-4.009-.686-5.845-3.85-7.2-7.559-1.134 8.957 3.208 11.715 8.64 11.879 12.593.381 20.331-10.281 23.76-18.359-7.082 7.282-14.706 15.836-25.2 14.039z"/>
  <path class="fil0" d="M394.92 550.809c-2.799-2.891-4.503-3.346-6.778-6.449-2.068-6.092-6.18-9.951-12.508-13.164-5.345-6.652-7.486-18.203-10.954-26.826-2.174-5.406-5.665-9.867-7.92-14.76-3.295-7.148-5.334-13.043-10.8-17.641-1.79-1.506-3.948-3.135-5.45-4.479-1.879-2.695-4.644-6.549-6.084-8.217 4.11-5.369 7.807-11.705 10.851-18.141 14.636-1.02 13.93-16.336 13.644-26.764.455-8.033 2.272-12.264-2.16-16.561 2.608 18.344-21.674 16.701-21.601 34.561.012 2.516.629 5.428 2.521 6.84-3.576 4.463-6.522 7.781-12.441 10.936-3.04-2.307-10.059-4.211-11.679-7.695-.329-1.486 2.772-8.672 3.96-11.52 4.679-11.23 11.916-20.396 17.28-29.16 7.95-12.99 17.221-24.449 19.271-41.221.221-1.805.347-4.836 1.043-6.02.72-1.223 4.309-2.48 5.966-3.521 28.508-17.873 28.879-33.28 30.96-60.479 3.069-14.065 36.682-33.596 10.281-42.426-36.919-9.859-49.447-27.072-72.561-50.094-6.196-6.171-13.333-12.332-22.681-13.32-1.822-.193-4.944.419-6.119 0-1.24-.442-4.831-5.191-6.121-6.48-13.411-13.405-34.695-26.408-54.72-23.76 3.748-2.372 7.891-3.555 7.92-10.44-2.819 2.972-3.771 3.927-7.92 4.68 2.013-2.665 4.452-8.571 1.08-11.52-.162 3.124-2.629 6.005-4.319 6.48.096-3.577-.136-5.909-2.521-7.92-.302 2.77-2.22 10.857-6.706 11.991-.952-.995-8.354-2.447-10.214-2.271-3.147-3.347-8.076-7.982-15.84-4.32-3.471-4.928-9.286-6.164-9.72-13.32 1.212-14.019 4.483-25.027-15.48-34.2-7.992-3.673-19.843-5.472-20.88-15.48-.597-5.755-.168-10.294-1.8-15.12-3.455-10.217-10.179-14.148-20.52-18-10.222-3.807-20.082-7.546-24.12-17.64-1.992-4.978-.518-9.941-1.08-15.12-.846-7.793-7.686-14.915-15.12-11.52-2.61 1.191-3.807 3.919-6.48 6.479-8.769 8.402-18.218 8.738-25.92 11.16-13.366 7.019-1.514 19.883 6.12 24.12 3.975 2.845 6.771 11.235 7.56 16.56 2.091 14.122-7.865 28.908-2.806 43.54 2.016 5.831 10.47 12.125 13.606 16.581 2.725 3.871 4.972 12.828 4.32 19.44-.554 5.619-4.013 12.828-3.6 18.72.421 6.015 3.438 9.535 6.12 12.96-8.903 15.872-.842 25.219 1.44 28.08-8.375 5.911-21.485 19.005-24.84 42.48-21.366 13.713-26.387 78.994-59.4 101.88-2.862 1.984-8.767 4.283-9 9-.685 13.855 28.077 30.848 35.295 41.402 4.222 6.174 4.623 21.725 9.314 27.146 8.876 9.387 26.582 6.873 35.311.932 3.422 6.525 7.728 12.369 12.6 18.721 4.352 5.67 10.642 12.154 11.88 19.799 1.028 6.348.062 13.76 2.88 19.801-10.659 11.809-17.687 25.613-17.64 44.279.009 3.783 1.371 6.922 1.042 10.846-.188 2.25-1.514 5.488-2.123 7.875-2.323 9.107-1.806 21.979 3.24 28.439 1.31 1.676 5.417 4.191 6.485 7.027 6.485 11.412-12.887 18.855-15.485 28.252-.782 2.83-1.335 6.57-.72 10.441.604 3.803 3.23 6.174 4.68 9 4.569 23.312 19.119 30.021 43.56 24.84 2.234.316 4.699 2.941 7.2 3.959 9.034 3.68 22.308 1.797 29.16-2.16 5.723-3.303 9.146-9.434 10.439-17.639 13.808-8.76 15.917-21.223 5.761-35.281-10.736-14.857-10.437-35.975.359-50.4 1.388-1.852 4.812-6.213 6.84-6.84 13.173-1.865 11.209 2.223 61.919-14.039.706.051 6.663 4.088 9.724 4.553 42.021 6.363 20.995 36.863 27.357 62.768 3.553 14.465 23.786 23.023 37.44 24.84 20.114 2.674 43.572-1.883 58.68-16.201 1.523-.918 3.573-1.084 5.04-2.158 5.526-4.049 11.947-15.359 7.561-25.201 7.48-6.531 3.155-19.69-2.879-25.92zm-10.08-1.44c-9.392-3.33-19.022-6.418-32.04-6.121 4.312-14.97 31.898-11.343 32.04 6.121zm-50.761-103.32c2.324-3.033 3.774-5.688 5.04-7.561-1.993-3.959-1.247-11.518 1.08-14.4.392 3.512-.469 5.049 3.24 9.721.264-3.92-1.086-13.1 5.04-16.199-.591 2.543-1.661 8.242.359 10.08 1.548-4.58 3.101-10.025 6.841-13.682 3.554 11.27-.375 24.305-10.801 24.48-3.338 7.221-7.014 13.355-12.902 18.027-1.752-2.277-3.19-3.406-3.934-4.057 1.047-1.655 4.024-3.782 6.037-6.409zm-19.439-210.6c3.675 2.291 39.586 9.48 33.479 5.04-7.106-5.167-27.238-13.497-32.76-20.88-.658-4.22-2.125-11.805-4.431-16.301 23.534 2.678 37.19 37.181 77.318 47.34 34.436 6.688-1.07 23.69-3.048 40.601.232 19.387-.172 42.378-30.601 57.96 1.436-37.152-27.276-60.41-56.879-76.32 8.052-10.07 15.63-20.612 16.922-37.44zM58.679 27.009c-.643-7.886 9.158-6.743 15.554-9.121C81.57 15.16 87.06 13.017 94.319 5.409c4.542-4.76 9.525 3.699 8.752 10.44-.934 8.138-3.876 18.547-11.632 19.44-2.438.281-5.48-2.14-8.28-2.16-4.638-.033-8.087 4.551-11.16 4.68-4.011.169-12.977-6.589-13.32-10.8zm-9.306 390.526c-6.348-6.322-4.63-20.186-10.134-27.646-6.899-9.359-18.955-15.586-25.766-26.223-6.811-10.635-3.349-11.795 2.535-17.887 32.121-25.127 35.817-69.756 53.911-84.806 1.101 2.963 2.083 6.183 2.657 9.554.313 9.357-7.683 23.743-11.736 32.241 10.035-4.865 14.501-16.572 18.291-23.5 8.27 7.81 14.911 16.456 28.149 18.821-28.658 33.577-52.866 70.925-30.6 116.999-5.116 7.391-20.031 9.696-27.307 2.447zm40.584 183.569c-.587 5.643-2.91 15.211-1.758 22.064-6.702-4.486-4.421-20.691 1.758-22.064zm-.307 25.23c17.486-3.492 33.957 6.83 38.023 21.596-19.708 4.977-37.285-5.318-38.023-21.596zm42.829 21.315c5.32-9.305 27.381-20.301 41.017-10.812-.388 15.359-29.381 23.593-41.017 10.812zm50.76-21.24c-2.259 3.051-6.702 6.49-9.719 6.84-1.841-11.279 3.428-23.088 8.155-30.031 7.118 4.944 6.793 16.648 1.564 23.191zm115.223-27.022c-5.61-10.377-.503-21.324 4.298-28.059-7.608 3.715-9.66 14.502-10.441 17.641-.899-18.504 3.829-39.461-6.479-51.119-6.544-7.402-18.243-7.422-24.841-15.121 1.415-.801 11.729-9.83 4.32-11.52-2.994-.684-10.997 4.471-14.399 6.48-36.07 21.303-66.577 26.705-103.32 5.398 5.719 8.07 24.436 15.777 33.12 18-7.247 10.889-11.192 25.682-8.28 42.48.655 3.775 3.434 8.021 3.24 10.801-.116 1.666-1.973 2.949-2.88 4.68-3.241 6.184-6.59 14.053-5.76 22.68 1.034-6.6 2.683-16.088 11.039-23.117l2.16 3.162c-5.573 7.545-9.045 17.988-9.239 30.756-18.089-5.061-32.713 4.008-41.399 12.959-7.569-15.332-17.079-22.432-39.6-21.959-.657-9.195.478-18.17 3.96-24.48 3.449-6.25 12.893-7.598 9.562-20.166-1.544-5.826-7.973-8.27-10.08-13.41-1.254-3.059-1.691-9.033-2.001-12.863.315-13.918 5.794-18.959 7.92-34.561-2.461 3.062-3.53 7.51-6.48 10.08-2.283-20.965 7.179-34.83 16.598-44.637 1.515 2.971 4.105 6.293 7.882 7.557-4.567-7.246-7.572-22.225-4.32-29.881 9.896 4.967 24.112 1.643 31.32-4.68 1.636-1.434 3-4.613 4.68-5.4 20.488-3.484 29.736-15.184 29.885-28.162 4.289-4.318 13.94-12.158 11.155-24.037-.484-2.066-1.683-3.916-2.52-5.4 1.532-12.336-1.947-27.348-21.96-26.639-1.995.021-3.899.936-5.76 1.08-21.03 1.619-31.734-15.48-24.48-34.922 8.103-21.714-7.148-2.914-7.2 7.561-3.085 17.576 9.471 30.344 27 30.24 3.258 6.582 6.77 12.047 12.96 16.561-2.537-4.662-8.138-10.803-8.396-16.918.952-.064 2.849-.791 3.083.041 2.28 8.133 13.119 18.453 20.434 21.557-4.346 4.898-8.524 12.031-9.359 19.08-.373 3.145.779 7.068-.36 8.641-1.082 1.49-6.894 1.461-9.72 2.441-12.364 2.734-21.323 15.631-21.698 25.678-22.611-1.535-22.772 4.393-32.662-.039-22.238-9.971-38.058-49.037-37.08-71.281 1.444-32.822 24.599-59.638 53.28-73.8 2.859-1.411 11.059-5.271 13.547-5.214 4.498 3.125 23.751 16.563 41.533 18.175-14.202-3.917-36.391-20.504-39.566-24.466-2.479-.491-8.978 2.932-12.274 3.226-55.376 4.939-66.775-66.903-26.64-92.88-3.234-4.22-8.638-8.56-10.08-14.4-1.255-5.083.397-10.445 3.24-14.04 1.666-.974 1.86.131 3.6 1.08-17.954-23.46 4.544-35.734-6.12-53.64 1.757-.976 5.476-.702 6.066-1.928-4.611-1.244-8.729-4.354-12.187-7.072-5.744-4.518-11.198-9.71-12.24-17.28-1.56-11.336 4.178-22.3 3.96-33.12-.135-6.713-2.939-12.007-5.04-18 4.232.712 4.929-4.219 8.64-5.4 1.919-.611 4.368.898 6.48 1.08 9.517.819 12.806-2.179 16.113-9.879 11.684 29.323 50.017 7.306 45.447 58.839 1.905-.393 1.947-.519 2.879-1.08 18.567 15.17 37.05 8.33 34.921 36 .024 2.67-1.397 6.55-.488 8.882 2.223 6.65 14.855 9.183 14.528 28.558 3.53.715 3.659-11.05 3.239-13.32 2.542-3.091 5.188-1.385 8-.204-2.761 1.403-6.296 3.466-6.919 8.124 2.02-2.024 6.826-5.722 12.96-5.76 1.852-.012 3.444.466 5.4 1.08-5.638 4.325-14.66 6.211-16.92 12.24 6.075-3.529 15.67-7.609 26.64-7.92 1.589.539 1.08 4.01 2.16 5.04.942.898 5.018 1.167 7.56 1.8 32.127 7.991 60.366 30.544 61.561 72.72-1.117 17.066-11.966 33.026-22.321 41.76-14.314 12.076-26.887 18.417-43.559 20.16-2.309 4.574-10.116 8.818-10.441 9.36 3.824.071 7.12-1.55 10.441-3.24 2.292-1.167 3.543-2.806 5.964-3.549 14.123-1.519 26.422-7.48 37.236-14.451 37.358 3.007 69.588 46.158 66.959 78.48-.361 8.838-4.742 16.496-9 22.68-10.036 14.578-22.098 28.814-29.437 45.377-7.132.43-12.516 2.707-17.003 5.383 4.14-.906 8.873-3.365 15.119-2.881-1.79 3.309-2.339 4.506-4.827 5.539-5.969-.391-18.742 4.152-21.453 8.861-6.406-7.623-17.631-10.229-29.313-7.359-1.168-13.354-11.257-22.219-25.199-23.523-.075-1.271-.723-2.514-.626-3.398 5.429-8.432 8.657-22.879 1.859-35.199 21.026-9.793 36.936-22.613 38.88-51.479.005-2.995-2.313-9.104-3.479-6.752-7.067 14.257-3.445 37.319-26.76 51.753-3.877 2.4-9.557 4.467-12.96 6.84-3.652 3.676-5.214 11.996-4.681 19.439.497 6.934 3.499 12.049 5.04 18 .525 2.025-.089 5.662 0 7.92.48 12.344 9.973 20.586 18.721 22.68 1.754.42 3.529.246 5.399.361 8.132 14.812 23.287 9.947 29.88 6.84 2.945-.264 8.232 2.287 11.16 1.08 2.562 9.598-.498 19.416-1.08 28.08 5.262-6.939 6.837-23.623 10.08-30.961 9.424-11.477 31.381 7.668 35.64 16.92-2.358-1.771-9.421-3.545-10.079 0-.36 5.891 22.067 5.035 18.72 30.24 8.079-9.484.144-21.016-1.8-24.119 4.713 1.938 6.124 7.805 9.359 12.959 12.998 20.123 11.021 23.318 14.04 37.801-4.89.27-7.602 2.717-10.439 5.039 4.154-1.105 10.96-4.105 13.68 0-7.362-.451-19.259 2.984-20.521 13.32-1.551-.035-4.452 1.014-5.909.723-3.763-5.021-7.768-6.975-13.891-6.842-14.351.307-27.829 12.662-23.761 30.238 5.484-2.779 30.914-27.029 65.521-19.08 5.219 1.199 11.508 4.191 14.76 7.201 6.813 6.305 8.337 20.004 5.4 30.24-11.306 33.238-78.297 37.429-92.501 12.935zM117.637 451.746c5.584-2.367 23.452-3.377 27.083.062-1.974 5.963-11.951 9.699-21.705 9.953-8.054.105-12.313-7.073-5.378-10.015zm27.442-4.257c3.159-13.973 12.181-25.236 29.997-24.197 2.214 4.121-1.228 9.834-3.357 12.678-5.216 6.966-16.243 12.872-26.64 11.519zm40.119-54.147c8.078 9.865-.425 23.334-7.358 26.787-5.454-8.82 1.479-22.457 7.358-26.787zm-15.639-23.973c8.658-.711 17.462 10.094 15.12 19.799-5.855-.218-25.44-19.494-15.12-19.799zm134.883 72.002c.242 5.943-8.96 11.498-15.655 11.816-1.973.096-4.913-.932-5.638-1.801 3.19-7.579 12.773-9.612 21.293-10.015zm-23.642 6.838c-5.738 9.324-24.9 7.779-28.44-2.16.562-3.07 9.868-4.918 15.479-3.961 6.263 1.399 9.955 3.121 12.961 6.121zm-35.8-4.013c-9.107-2.805-18.725-14.23-15.681-24.066 10.563-.316 18.471 6.852 21.24 14.76 2.283 5.022.389 11.138-5.559 9.306zm-17.886-34.889c-3.703-5.793-5.5-21.699.161-29.244 6.423 2.154 5.701 25.053-.161 29.244zM338.76 543.61c.217 2.582-5.141 4.572-7.561 5.76-9.536 4.68-17.294 9.195-24.84 15.119-2.617-13.219 10.678-27.018 25.919-24.84 2.349.336 6.334 2.224 6.482 3.961zm49.102 55.215c3.605-3.975 7.5-11.643 8.011-17.928 3.193 7.492-4.567 18.834-8.011 17.928zm8.661-25.209c.412-8.367-2.69-16.717-6.896-20.465 8.146 1.328 10.964 13.863 6.896 20.465z"/>
  <path class="fil0" d="M152.639 243.009c-4.029-2.374-8.32-5.315-13.32-7.56-4.438-1.993-10.641-4.913-16.2-2.88 11.986 3.641 20.41 18.487 24.84 23.4 3.21 1.109 9.738-4.794 10.44-6.12 2.659-5.021 3.512-11.296 6.84-16.92 1.62-3.635 4.427-6.5 3.96-9.72-7.635 4.484-11.68 12.56-16.56 19.8zM127.439 637.93c9.153-8.441 16.516-11.748 30.237-14.357-11.758-1.149-26.878 4.962-30.237 14.357z"/>
  <path class="fil0" d="M194.759 187.209c-1.728.834-3.526 4.971-2.16 7.92.912 1.784 4.067 1.676 5.279 3.164-1.08 3.873-3.606 9.225-8.519 9.437-3.195.138-7.892-2.257-8.28-5.4-.196-1.59 1.236-3.472 1.44-5.04 1.558-11.952-6.398-20.621-14.4-23.04 9.575 10.828 14.783 23.106-.359 35.64-4.583 3.793-13.757 6.909-19.8 9-8.74 3.023-16.868 8.04-25.2 6.12-10.69-2.463-11.06-16.314-4.32-22.68-8.239 3.386-9.692 13.556-5.04 19.44 1.647 2.084 3.163 2.959 5.04 4.119-5.256.027-10.091-7.445-10.52-3.465-.561 5.206 7.806 6.753 13.76 6.546 4.732.031 9.801-2.399 14.04-1.8 6.79.959 7.417 8.827 14.04 9.36-4.129-16.721 11.795-18.69 20.52-24.84 1.591-1.122 5.025-4.186 6.174-4.308 2.364-.253 5.576 2.542 9.306 2.867 8.764.764 12.862-5.079 14.76-11.52 7.563 1.709 8.386 13.15 6.84 21.24 7.754-9.595 2.493-34.325-12.601-32.76z"/>
  <path class="fil1" d="M91.439 35.289c7.756-.893 10.699-11.302 11.632-19.44.773-6.741-4.21-15.2-8.752-10.44-7.259 7.608-12.749 9.751-20.086 12.479-6.396 2.378-16.197 1.235-15.554 9.121.343 4.21 9.309 10.969 13.32 10.8 3.073-.129 6.522-4.713 11.16-4.68 2.799.02 5.842 2.441 8.28 2.16zm5.909-24.406c5.72 2.436-8.714 17.397-13.577 11.652 9.349-6.484 8.871-13.655 13.577-11.652zM64.004 23.807c2.17-3 12.097.395 17.841-.107 1.129 5.841-20.516 3.805-17.841.107zM107.279 298.089c-13.238-2.365-19.88-11.011-28.149-18.821-3.789 6.929-8.256 18.636-18.291 23.5 4.054-8.498 12.05-22.884 11.736-32.241-.574-3.371-1.556-6.59-2.657-9.554-18.094 15.05-21.79 59.679-53.911 84.806-5.883 6.092-9.346 7.252-2.535 17.887 6.811 10.637 18.866 16.863 25.766 26.223 5.503 7.461 3.786 21.324 10.134 27.646 7.277 7.248 22.192 4.943 27.307-2.447-22.266-46.074 1.942-83.422 30.6-116.999zM354.599 349.209c30.429-15.582 30.833-38.573 30.601-57.96 1.978-16.911 37.483-33.913 3.048-40.601-40.128-10.159-53.784-44.662-77.318-47.34 2.306 4.497 3.772 12.081 4.431 16.301 5.521 7.383 25.653 15.712 32.76 20.88 6.106 4.44-29.805-2.75-33.479-5.04-1.292 16.828-8.87 27.37-16.92 37.44 29.6 15.911 58.312 39.168 56.877 76.32zM331.977 456.516c5.889-4.672 9.564-10.807 12.902-18.027 10.426-.176 14.354-13.211 10.801-24.48-3.74 3.656-5.293 9.102-6.841 13.682-2.021-1.838-.95-7.537-.359-10.08-6.126 3.1-4.776 12.279-5.04 16.199-3.709-4.672-2.849-6.209-3.24-9.721-2.327 2.883-3.073 10.441-1.08 14.4-1.266 1.873-2.716 4.527-5.04 7.561-2.013 2.627-4.99 4.754-6.036 6.41.742.65 2.181 1.779 3.933 4.056z"/>
  <path d="M385.56 556.209c-3.252-3.01-9.541-6.002-14.76-7.201-34.607-7.949-60.037 16.301-65.521 19.08-4.068-17.576 9.41-29.932 23.761-30.238 6.123-.133 10.128 1.82 13.891 6.842 1.457.291 4.358-.758 5.909-.723 1.262-10.336 13.158-13.771 20.521-13.32-2.72-4.105-9.525-1.105-13.68 0 2.838-2.322 5.55-4.77 10.439-5.039-3.019-14.482-1.042-17.678-14.04-37.801-3.235-5.154-4.646-11.021-9.359-12.959 1.943 3.104 9.879 14.635 1.8 24.119 3.348-25.205-19.08-24.35-18.72-30.24.658-3.545 7.721-1.771 10.079 0-4.259-9.252-26.216-28.396-35.64-16.92-3.243 7.338-4.818 24.021-10.08 30.961.582-8.664 3.642-18.482 1.08-28.08-2.928 1.207-8.215-1.344-11.16-1.08-6.593 3.107-21.748 7.973-29.88-6.84-1.87-.115-3.646.059-5.399-.361-8.748-2.094-18.24-10.336-18.721-22.68-.089-2.258.525-5.895 0-7.92-1.541-5.951-4.543-11.066-5.04-18-.533-7.443 1.028-15.764 4.681-19.439 3.403-2.373 9.083-4.439 12.96-6.84 23.314-14.434 19.692-37.496 26.76-51.753 1.166-2.352 3.484 3.757 3.479 6.752-1.944 28.866-17.854 41.686-38.88 51.479 6.798 12.32 3.569 26.768-1.859 35.199-.097.885.551 2.127.626 3.398 13.942 1.305 24.031 10.17 25.199 23.523 11.683-2.869 22.907-.264 29.313 7.359 2.711-4.709 15.484-9.252 21.453-8.861 2.488-1.033 3.037-2.23 4.827-5.539-6.246-.484-10.979 1.975-15.119 2.881 4.487-2.676 9.871-4.953 17.003-5.383 7.339-16.562 19.4-30.799 29.437-45.377 4.258-6.184 8.639-13.842 9-22.68 2.629-32.322-29.601-75.474-66.959-78.48-10.814 6.97-23.113 12.932-37.236 14.451-2.421.744-3.672 2.382-5.964 3.549-3.321 1.69-6.617 3.311-10.441 3.24.325-.542 8.133-4.786 10.441-9.36 16.672-1.743 29.244-8.084 43.559-20.16 10.355-8.733 21.204-24.694 22.321-41.76-1.194-42.176-29.434-64.729-61.561-72.72-2.542-.632-6.617-.901-7.56-1.8-1.08-1.03-.571-4.501-2.16-5.04-10.97.311-20.564 4.391-26.64 7.92 2.26-6.029 11.282-7.915 16.92-12.24-1.956-.613-3.549-1.092-5.4-1.08-6.135.038-10.94 3.735-12.96 5.76.624-4.657 4.159-6.721 6.919-8.124-2.812-1.181-5.457-2.887-8 .204.42 2.27.291 14.035-3.239 13.32.327-19.375-12.305-21.908-14.528-28.558-.909-2.332.513-6.211.488-8.882 2.129-27.67-16.354-20.83-34.921-36-.932.562-.975.687-2.879 1.08 4.569-51.533-33.763-29.516-45.447-58.839-3.307 7.7-6.596 10.698-16.113 9.879-2.112-.182-4.561-1.691-6.48-1.08-3.711 1.181-4.408 6.112-8.64 5.4 2.101 5.993 4.905 11.287 5.04 18 .218 10.82-5.52 21.784-3.96 33.12 1.042 7.57 6.496 12.762 12.24 17.28 3.458 2.719 7.576 5.829 12.187 7.072-.59 1.226-4.309.952-6.066 1.928 10.664 17.905-11.833 30.179 6.12 53.64-1.74-.949-1.934-2.054-3.6-1.08-2.842 3.595-4.495 8.957-3.24 14.04 1.441 5.841 6.845 10.181 10.08 14.4-40.135 25.977-28.736 97.819 26.64 92.88 3.296-.294 9.795-3.716 12.274-3.226 3.175 3.962 25.364 20.549 39.566 24.466-17.782-1.612-37.035-15.05-41.533-18.175-2.489-.057-10.688 3.803-13.547 5.214-28.681 14.162-51.836 40.978-53.28 73.8-.978 22.244 14.842 61.311 37.08 71.281 9.89 4.432 10.051-1.496 32.662.039.375-10.047 9.334-22.943 21.698-25.678 2.826-.98 8.638-.951 9.72-2.441 1.14-1.572-.013-5.496.36-8.641.835-7.049 5.014-14.182 9.359-19.08-7.315-3.104-18.154-13.424-20.434-21.557-.233-.832-2.131-.105-3.083-.041.259 6.115 5.86 12.256 8.396 16.918-6.19-4.514-9.702-9.979-12.96-16.561-17.528.104-30.085-12.664-27-30.24.051-10.475 15.302-29.275 7.2-7.561-7.253 19.441 3.451 36.541 24.48 34.922 1.86-.145 3.765-1.059 5.76-1.08 20.013-.709 23.492 14.303 21.96 26.639.836 1.484 2.035 3.334 2.52 5.4 2.786 11.879-6.866 19.719-11.155 24.037-.149 12.979-9.396 24.678-29.885 28.162-1.68.787-3.044 3.967-4.68 5.4-7.208 6.322-21.424 9.646-31.32 4.68-3.252 7.656-.248 22.635 4.32 29.881-3.777-1.264-6.368-4.586-7.882-7.557-9.418 9.807-18.881 23.672-16.598 44.637 2.95-2.57 4.019-7.018 6.48-10.08-2.125 15.602-7.604 20.643-7.92 34.561.31 3.83.747 9.805 2.001 12.863 2.107 5.141 8.536 7.584 10.08 13.41 3.331 12.568-6.112 13.916-9.562 20.166-3.482 6.311-4.617 15.285-3.96 24.48 22.521-.473 32.031 6.627 39.6 21.959 8.686-8.951 23.31-18.02 41.399-12.959.194-12.768 3.666-23.211 9.239-30.756l-2.16-3.162c-8.355 7.029-10.004 16.518-11.039 23.117-.83-8.627 2.519-16.496 5.76-22.68.907-1.73 2.764-3.014 2.88-4.68.193-2.779-2.585-7.025-3.24-10.801-2.912-16.799 1.033-31.592 8.28-42.48-8.685-2.223-27.401-9.93-33.12-18 36.743 21.307 67.25 15.904 103.32-5.398 3.402-2.01 11.405-7.164 14.399-6.48 7.408 1.689-2.905 10.719-4.32 11.52 6.598 7.699 18.297 7.719 24.841 15.121 10.309 11.658 5.58 32.615 6.479 51.119.781-3.139 2.833-13.926 10.441-17.641-4.801 6.734-9.908 17.682-4.298 28.059 14.204 24.494 81.195 20.303 92.498-12.938 2.939-10.233 1.416-23.932-5.397-30.237zm-40.143-200.89c6.397 23.582-16.524 30.312-19.978 15.49 1.696 2.24 4.413 5.684 8.719 4.635 17.308-4.207-1.82-30.27-9.252-35.621-4.925-6.037-1.266-8.84 4.765-3.477 4.593 4.084 8.523 11.578 11.607 16.822 1.694-.64 3.903-.496 4.139 2.151zm-25.378-17.991c.286.559 8.786 10.652 10.44 11.881 1.464 1.086 5.93 5.641 2.52 7.561-3.857 2.17-12.689-14.18-12.96-19.442zm14.04-7.199c4.764 4.814 14.402 16.135 9 18-3.531 1.219-5.088-4.957-6.48-7.92-2.824-6.014-7.688-12.44-14.399-14.76-3.805-1.314-9.094-.798-11.881 2.16 7.701-10.122 19.656-1.629 23.76 2.52zm-95.264 51.018c4.07 7.027 6.099 18.611 4.657 24.984-.844.717-3.271 1.047-4.939.938 4.122-5.397 1.912-19.049.282-25.922zm18.807 49.586c-2.87-10.854-11.395-14.971-19.505-17.062 8.208-1.082 19.596 6.123 21.842 14.752l-2.337 2.31zm25.856 6.338c.867.742.019 1.664-.303 2.811-3.823-4.262-11.267-9.248-22.395-6.992 6.481-4.231 15.213-2.605 22.698 4.181zm-205.92-62.967c-9.61-.648 2.341-20.236 21.082-20.574 9.061-.293 7.752 2.547.126 3.605-6.803.945-12.321 5.303-15.606 10.434-1.674 2.613-1.858 6.787-5.602 6.535zm10.641 15.064c-3.765.615-6.703-1.455-6.12-5.039 10.777.24 16.389-7.174 23.04-12.24-1.612 6.186-12.41 15.77-16.92 17.279zm6.751-18.584c-5.38 3.521-9.733 1.314-3.463-3.553 3.878-3.012 9.322-4.32 14.713-5.223-3.103 3.573-7.123 6.075-11.25 8.776zm76.29 21.426c.657-.65 1.253.09 2.709.855-5.104 5.504-6.529 9.217-6.429 19.67-3.083-10.873-1.093-15.751 3.72-20.525zm-12.016 24.805c-15.825 8.986-20.322 16.523-20.999 22.928l-3.056-1.486c1.971-9.057 12.52-17.505 24.055-21.442zm-27.425 23.187l.439 2.67c-5.464-.375-13.745 1.857-18.037 2.967 4.243-3.199 10.716-5.52 17.598-5.637zm-33.173 94.133c.483-5.893 18.315-4.428 23.483 1.031-5.918-2.469-12.728.334-17.616 1.596-1.425.367-6.215 1.609-5.867-2.627zm17.887 4.908c-9.355 1.354-11.798 4.779-14.293 5.664-2.884 1.021-2.54-2.242-.652-3.34 3.202-1.863 9.611-2.648 14.945-2.324zm-22.194 81.246c-.202-3.707.604-7.775 1.439-10.801 1.173 3.541 2.151 5.691 3.6 6.84 2.772.543 10.977 2.332 14.618 6.346-3.92-2.635-14.924-5.41-19.657-2.385zm10.8-53.64c-5.432-.164-9.774-2.922-8.64-11.879 1.355 3.709 3.191 6.873 7.2 7.559 10.494 1.797 18.118-6.758 25.2-14.039-3.429 8.078-11.167 18.74-23.76 18.359zm52.557 56.924c-13.721 2.609-21.084 5.916-30.237 14.357 3.359-9.395 18.479-15.506 30.237-14.357zm7.563-390.644c-3.328 5.624-4.181 11.898-6.84 16.92-.702 1.326-7.23 7.229-10.44 6.12-4.43-4.913-12.854-19.759-24.84-23.4 5.559-2.033 11.762.887 16.2 2.88 5 2.245 9.292 5.187 13.32 7.56 4.88-7.24 8.925-15.316 16.56-19.8.467 3.22-2.34 6.085-3.96 9.72zm42.12-12.96c1.546-8.09.723-19.53-6.84-21.24-1.897 6.441-5.996 12.284-14.76 11.52-3.73-.325-6.942-3.12-9.306-2.867-1.149.122-4.583 3.186-6.174 4.308-8.725 6.149-24.649 8.119-20.52 24.84-6.623-.533-7.25-8.4-14.04-9.36-4.239-.599-9.308 1.831-14.04 1.8-5.954.207-14.321-1.34-13.76-6.546.429-3.98 5.264 3.492 10.52 3.465-1.877-1.16-3.393-2.035-5.04-4.119-4.652-5.884-3.199-16.054 5.04-19.44-6.74 6.366-6.371 20.217 4.32 22.68 8.332 1.919 16.46-3.097 25.2-6.12 6.043-2.091 15.217-5.207 19.8-9 15.143-12.534 9.935-24.812.359-35.64 8.002 2.419 15.958 11.088 14.4 23.04-.204 1.568-1.637 3.45-1.44 5.04.389 3.143 5.085 5.538 8.28 5.4 4.913-.212 7.439-5.564 8.519-9.437-1.212-1.487-4.367-1.38-5.279-3.164-1.366-2.949.433-7.086 2.16-7.92 15.095-1.565 20.356 23.165 12.601 32.76zm128.679 264.002c.276 2.17-2.914 1.844-4.675 2.641-5.487 1.217-8.146 5.479-10.964 8.396.198-6.234 7.315-11.826 11.113-12.508 2.337-.42 4.377.299 4.526 1.471zm-10.674-6.113c6.244-2.096 8.923 3.168 1.878 4.055-4.002 1.088-10.036 4.08-15.123 12.736-.595-7.774 7.441-14.844 13.245-16.791zm-17.205 63.23c5.395-5.203 15.756-8.816 25.561-5.76-10.191-1.781-20.52 1.24-26.548 9.994-.401.582-2.139 3.725-2.839 1.35-.014-1.756 2.951-4.74 3.826-5.584z" fill="#d5cac6"/>
  <path class="fil3" d="M144.719 451.809c-3.63-3.439-21.499-2.43-27.083-.062-6.935 2.941-2.675 10.119 5.377 10.016 9.755-.255 19.732-3.991 21.706-9.954zM229.319 420.129c-3.044 9.836 6.573 21.262 15.681 24.066 5.948 1.832 7.842-4.283 5.56-9.307-2.77-7.907-10.677-15.075-21.241-14.759zM252.359 446.049c3.54 9.939 22.702 11.484 28.44 2.16-3.006-3-6.698-4.723-12.961-6.121-5.61-.957-14.917.891-15.479 3.961zM227.275 380.063c-5.661 7.545-3.864 23.451-.161 29.244 5.862-4.191 6.584-27.09.161-29.244zM283.149 451.387c.725.869 3.665 1.896 5.638 1.801 6.695-.318 15.897-5.873 15.655-11.816-8.52.402-18.103 2.435-21.293 10.015zM306.359 564.489c7.546-5.924 15.304-10.439 24.84-15.119 2.42-1.188 7.777-3.178 7.561-5.76-.147-1.736-4.133-3.625-6.481-3.961-15.242-2.178-28.537 11.621-25.92 24.84zM389.627 553.151c4.206 3.748 7.309 12.098 6.896 20.465 4.068-6.602 1.25-19.137-6.896-20.465zM387.862 598.825c3.443.906 11.204-10.436 8.011-17.928-.511 6.285-4.405 13.953-8.011 17.928zM177.84 420.129c6.933-3.453 15.436-16.922 7.358-26.787-5.879 4.33-12.812 17.967-7.358 26.787zM89.65 626.334c.737 16.277 18.314 26.572 38.023 21.596-4.066-14.766-20.536-25.088-38.023-21.596zM169.559 369.369c-10.32.305 9.265 19.58 15.12 19.799 2.342-9.705-6.462-20.509-15.12-19.799zM132.479 647.649c11.636 12.781 40.629 4.547 41.017-10.812-13.636-9.489-35.697 1.507-41.017 10.812zM89.957 601.104c-6.179 1.373-8.46 17.578-1.758 22.064-1.152-6.853 1.171-16.422 1.758-22.064zM173.52 633.248c3.017-.35 7.46-3.789 9.719-6.84 5.229-6.543 5.554-18.246-1.564-23.191-4.728 6.943-9.997 18.752-8.155 30.031zM352.8 543.248c13.018-.297 22.648 2.791 32.04 6.121-.142-17.464-27.728-21.091-32.04-6.121zM171.719 435.969c2.129-2.844 5.571-8.557 3.357-12.678-17.816-1.039-26.838 10.225-29.997 24.197 10.397 1.354 21.424-4.552 26.64-11.519z"/>
</svg>
