<?xml version="1.0" encoding="utf-8"?>

<!DOCTYPE svg PUBLIC "-//W3C//DTD SVG 1.1//EN" "http://www.w3.org/Graphics/SVG/1.1/DTD/svg11.dtd">
<svg version="1.1" id="Layer_1" xmlns="http://www.w3.org/2000/svg" xmlns:xlink="http://www.w3.org/1999/xlink" x="0px" y="0px"
	width="413px" height="657px" viewBox="0 0 413 657" style="enable-background:new 0 0 413 657;"
	xml:space="preserve">
<style type="text/css">
<![CDATA[
    .fil0{fill:#000000;}
    .fil1{fill:#888A8C;}
    .fil2{fill:#D5CAC6;}
    .fil3{fill:#E78E96;}
]]>
</style>
<g>
	<path class="fil0" d="M95.759,609.489C94.923,612.514,94.118,616.583,94.32,620.29
		C99.052,617.265,110.057,620.04,113.977,622.675C110.336,618.661,102.132,616.872,99.359,616.329
		C97.91,615.18,96.932,613.03,95.759,609.489z"/>
	<path class="fil0" d="M173.949,392.866C172.493,392.1,171.897,391.36,171.24,392.011
		C166.427,396.784,164.437,401.663,167.52,412.536C167.42,402.082,168.845,398.369,173.949,392.866z"/>
	<path class="fil0" d="M88.199,389.168C92.709,387.658,103.507,378.074,105.119,371.889
		C98.468,376.955,92.856,384.369,82.079,384.129C81.496,387.713,84.434,389.784,88.199,389.168z"/>
	<path class="fil0" d="M101.567,541.368C99.68,542.466,99.335,545.729,102.219,544.708
		C104.714,543.823,107.157,540.397,116.512,539.044C111.179,538.719,104.77,539.504,101.567,541.368z"/>
	<path class="fil0" d="M98.765,357.135C106.391,356.076,107.7,353.237,98.639,353.53
		C79.899,353.868,67.948,373.456,77.557,374.104C81.301,374.356,81.485,370.182,83.159,367.569
		C86.444,362.438,91.962,358.08,98.765,357.135z"/>
	<path class="fil0" d="M159.224,416.815C147.689,420.753,137.14,429.2,135.169,438.256L138.225,439.742
		C138.902,433.338,143.399,425.801,159.224,416.815z"/>
	<path class="fil0" d="M104.494,536.762C109.382,535.5,116.191,532.698,122.11,535.166
		C116.942,529.707,99.11,528.242,98.627,534.135C98.278,538.371,103.068,537.129,104.494,536.762z"/>
	<path class="fil0" d="M132.238,442.672L131.799,440.002C124.918,440.119,118.445,442.44,114.202,445.639
		C118.493,444.53,126.774,442.297,132.238,442.672z"/>
	<path class="fil0" d="M94.95,370.584C99.077,367.883,103.097,365.381,106.2,361.809
		C100.809,362.711,95.365,364.02,91.487,367.032C85.217,371.899,89.57,374.106,94.95,370.584z"/>
	<path class="fil0" d="M260.781,432.889C271.909,430.633,279.352,435.619,283.176,439.881
		C283.497,438.735,284.346,437.813,283.479,437.07C275.993,430.285,267.261,428.659,260.781,432.889z"/>
	<path class="fil0" d="M332.999,356.77C336.409,354.85,331.943,350.295,330.479,349.209
		C328.825,347.98,320.325,337.887,320.039,337.328C320.31,342.59,329.142,358.94,332.999,356.77z"/>
	<path class="fil0" d="M341.278,353.168C338.194,347.924,334.263,340.43,329.671,336.346
		C323.641,330.983,319.982,333.785,324.906,339.823C332.338,345.175,351.466,371.237,334.158,375.444
		C329.852,376.493,327.136,373.049,325.439,370.809C328.892,385.631,351.814,378.901,345.417,355.319
		C345.181,352.672,342.972,352.528,341.278,353.168z"/>
	<path class="fil0" d="M97.348,10.883C92.642,8.88,93.12,16.05,83.771,22.535C88.633,28.28,103.067,13.319,97.348,10.883
		z"/>
	<path class="fil0" d="M64.004,23.807C61.329,27.505,82.973,29.541,81.845,23.7C76.101,24.201,66.174,20.807,64.004,23.807
		z"/>
	<path class="fil0" d="M238.117,413.67C246.227,415.762,254.752,419.879,257.622,430.732L259.959,428.421
		C257.713,419.793,246.325,412.588,238.117,413.67z"/>
	<path class="fil0" d="M243.473,406.131C244.914,399.758,242.886,388.174,238.816,381.147
		C240.446,388.02,242.656,401.672,238.534,407.069C240.202,407.178,242.629,406.848,243.473,406.131z"/>
	<path class="fil0" d="M322.199,325.449C328.911,327.769,333.774,334.196,336.598,340.209
		C337.991,343.172,339.547,349.348,343.078,348.129C348.48,346.264,338.842,334.943,334.078,330.129
		C329.974,325.98,318.018,317.487,310.317,327.609C313.105,324.651,318.395,324.135,322.199,325.449z"/>
	<path class="fil0" d="M327.242,481.912C334.287,481.025,331.608,475.762,325.364,477.857
		C319.559,479.804,311.524,486.875,312.119,494.648C317.206,485.992,323.24,483,327.242,481.912z"/>
	<path class="fil0" d="M320.399,495.008C323.217,492.09,325.876,487.828,331.363,486.612
		C333.124,485.815,336.314,486.141,336.038,483.971C335.889,482.799,333.849,482.08,331.513,482.5
		C327.715,483.182,320.598,488.774,320.399,495.008z"/>
	<path class="fil0" d="M307.172,545.323C313.2,536.569,323.528,533.548,333.72,535.329
		C323.915,532.272,313.554,535.886,308.159,541.089C307.284,541.933,304.319,544.917,304.333,546.673
		C305.033,549.047,306.77,545.905,307.172,545.323z"/>
	<path class="fil0" d="M103.679,562.328C99.67,561.642,97.834,558.478,96.479,554.769
		C95.345,563.726,99.687,566.484,105.119,566.648C117.712,567.029,125.45,556.367,128.879,548.289
		C121.797,555.571,114.173,564.125,103.679,562.328z"/>
	<path class="fil0" d="M394.92,550.809C392.121,547.918,390.417,547.463,388.142,544.36
		C386.074,538.268,381.962,534.409,375.634,531.196C370.289,524.544,368.148,512.993,364.68,504.37
		C362.506,498.964,359.015,494.503,356.76,489.61C353.465,482.462,351.426,476.567,345.96,471.969
		C344.17,470.463,342.012,468.834,340.51,467.49C338.631,464.795,335.866,460.941,334.426,459.273
		C338.536,453.904,342.233,447.568,345.277,441.132C359.913,440.112,359.207,424.796,358.921,414.368
		C359.376,406.335,361.193,402.104,356.761,397.807C359.369,416.151,335.087,414.508,335.16,432.368
		C335.172,434.884,335.789,437.796,337.681,439.208C334.105,443.671,331.159,446.989,325.24,450.144
		C322.2,447.837,315.181,445.933,313.561,442.449C313.232,440.963,316.333,433.777,317.521,430.929
		C322.2,419.699,329.437,410.533,334.801,401.769C342.751,388.779,352.022,377.32,354.072,360.548
		C354.293,358.743,354.419,355.712,355.115,354.528C355.835,353.305,359.424,352.048,361.081,351.007
		C389.589,333.134,389.96,317.727,392.041,290.528C395.11,276.463,428.723,256.932,402.322,248.102
		C365.403,238.243,352.875,221.03,329.761,198.008C323.565,191.837,316.428,185.676,307.08,184.688
		C305.258,184.495,302.136,185.107,300.961,184.688C299.721,184.246,296.13,179.497,294.84,178.208
		C281.429,164.803,260.145,151.8,240.12,154.448C243.868,152.076,248.011,150.893,248.04,144.008
		C245.221,146.98,244.269,147.935,240.12,148.688C242.133,146.023,244.572,140.117,241.2,137.168
		C241.038,140.292,238.571,143.173,236.881,143.648C236.977,140.071,236.745,137.739,234.36,135.728
		C234.058,138.498,232.14,146.585,227.654,147.719C226.702,146.724,219.3,145.272,217.44,145.448
		C214.293,142.101,209.364,137.466,201.6,141.128C198.129,136.2,192.314,134.964,191.88,127.808
		C193.092,113.789,196.363,102.781,176.4,93.608C168.408,89.935,156.557,88.136,155.52,78.128
		C154.923,72.373,155.352,67.834,153.72,63.008C150.265,52.791,143.541,48.86,133.2,45.008
		C122.978,41.201,113.118,37.462,109.08,27.368C107.088,22.39,108.562,17.427,108,12.248
		C107.154,4.455,100.314,-2.667,92.88,0.728C90.27,1.919,89.073,4.647,86.4,7.207C77.631,15.609,68.182,15.945,60.48,18.367
		C47.114,25.386,58.966,38.25,66.6,42.487C70.575,45.332,73.371,53.722,74.16,59.047
		C76.251,73.169,66.295,87.955,71.354,102.587C73.37,108.418,81.824,114.712,84.96,119.168
		C87.685,123.039,89.932,131.996,89.28,138.608C88.726,144.227,85.267,151.436,85.68,157.328
		C86.101,163.343,89.118,166.863,91.8,170.288C82.897,186.16,90.958,195.507,93.24,198.368
		C84.865,204.279,71.755,217.373,68.4,240.848C47.034,254.561,42.013,319.842,9,342.728
		C6.138,344.712,0.233,347.011,0,351.728C-0.685,365.583,28.077,382.576,35.295,393.13
		C39.517,399.304,39.918,414.855,44.609,420.276C53.485,429.663,71.191,427.149,79.92,421.208
		C83.342,427.733,87.648,433.577,92.52,439.929C96.872,445.599,103.162,452.083,104.4,459.728
		C105.428,466.076,104.462,473.488,107.28,479.529C96.621,491.338,89.593,505.142,89.64,523.808
		C89.649,527.591,91.011,530.73,90.682,534.654C90.494,536.904,89.168,540.142,88.559,542.529
		C86.236,551.636,86.753,564.508,91.799,570.968C93.109,572.644,97.216,575.159,98.284,577.995
		C104.769,589.407,85.397,596.85,82.799,606.247C82.017,609.077,81.464,612.817,82.079,616.688
		C82.683,620.491,85.309,622.862,86.759,625.688C91.328,649,105.878,655.709,130.319,650.528
		C132.553,650.844,135.018,653.469,137.519,654.487C146.553,658.167,159.827,656.284,166.679,652.327
		C172.402,649.024,175.825,642.893,177.118,634.688C190.926,625.928,193.035,613.465,182.879,599.407
		C172.143,584.55,172.442,563.432,183.238,549.007C184.626,547.155,188.05,542.794,190.078,542.167
		C203.251,540.302,201.287,544.39,251.997,528.128C252.703,528.179,258.66,532.216,261.721,532.681
		C303.742,539.044,282.716,569.544,289.078,595.449C292.631,609.914,312.864,618.472,326.518,620.289
		C346.632,622.963,370.09,618.406,385.198,604.088C386.721,603.17,388.771,603.004,390.238,601.93
		C395.764,597.881,402.185,586.571,397.799,576.729C405.279,570.198,400.954,557.039,394.92,550.809zM384.84,549.369
		C375.448,546.039,365.818,542.951,352.8,543.248C357.112,528.278,384.698,531.905,384.84,549.369zM334.079,446.049
		C336.403,443.016,337.853,440.361,339.119,438.488C337.126,434.529,337.872,426.97,340.199,424.088
		C340.591,427.6,339.73,429.137,343.439,433.809C343.703,429.889,342.353,420.709,348.479,417.61
		C347.888,420.153,346.818,425.852,348.838,427.69C350.386,423.11,351.939,417.665,355.679,414.008
		C359.233,425.278,355.304,438.313,344.878,438.488C341.54,445.709,337.864,451.843,331.976,456.515
		C330.224,454.238,328.786,453.109,328.042,452.458C329.089,450.803,332.066,448.676,334.079,446.049zM314.64,235.449
		C318.315,237.74,354.226,244.929,348.119,240.489C341.013,235.322,320.881,226.992,315.359,219.609
		C314.701,215.389,313.234,207.804,310.928,203.308C334.462,205.986,348.118,240.489,388.246,250.648
		C422.682,257.336,387.176,274.338,385.198,291.249C385.43,310.636,385.026,333.627,354.597,349.209
		C356.033,312.057,327.321,288.799,297.718,272.889C305.77,262.819,313.348,252.277,314.64,235.449zM58.679,27.009
		C58.036,19.123,67.837,20.266,74.233,17.888C81.57,15.16,87.06,13.017,94.319,5.409
		C98.861,0.649,103.844,9.108,103.071,15.849C102.137,23.987,99.195,34.396,91.439,35.289
		C89.001,35.57,85.959,33.149,83.159,33.129C78.521,33.096,75.072,37.68,71.999,37.809
		C67.988,37.978,59.022,31.22,58.679,27.009zM49.373,417.535C43.025,411.213,44.743,397.349,39.239,389.889
		C32.34,380.53,20.284,374.303,13.473,363.666C6.662,353.031,10.124,351.871,16.008,345.779
		C48.129,320.652,51.825,276.023,69.919,260.973C71.02,263.936,72.002,267.156,72.576,270.527
		C72.889,279.884,64.893,294.27,60.84,302.768C70.875,297.903,75.341,286.196,79.131,279.268
		C87.401,287.078,94.042,295.724,107.28,298.089C78.622,331.666,54.414,369.014,76.68,415.088
		C71.564,422.479,56.649,424.784,49.373,417.535zM89.957,601.104C89.37,606.747,87.047,616.315,88.199,623.168
		C81.497,618.682,83.778,602.477,89.957,601.104zM89.65,626.334C107.136,622.842,123.607,633.164,127.673,647.93
		C107.965,652.907,90.388,642.612,89.65,626.334zM132.479,647.649C137.799,638.344,159.86,627.348,173.496,636.837
		C173.108,652.196,144.115,660.43,132.479,647.649zM183.239,626.409C180.98,629.46,176.537,632.899,173.52,633.249
		C171.679,621.97,176.948,610.161,181.675,603.218C188.793,608.162,188.468,619.866,183.239,626.409zM298.462,599.387
		C292.852,589.01,297.959,578.063,302.76,571.328C295.152,575.043,293.1,585.83,292.319,588.969
		C291.42,570.465,296.148,549.508,285.84,537.85C279.296,530.448,267.597,530.428,260.999,522.729
		C262.414,521.928,272.728,512.899,265.319,511.209C262.325,510.525,254.322,515.68,250.92,517.689
		C214.85,538.992,184.343,544.394,147.6,523.087C153.319,531.157,172.036,538.864,180.72,541.087
		C173.473,551.976,169.528,566.769,172.44,583.567C173.095,587.342,175.874,591.588,175.68,594.368
		C175.564,596.034,173.707,597.317,172.8,599.048C169.559,605.232,166.21,613.101,167.04,621.728
		C168.074,615.128,169.723,605.64,178.079,598.611L180.239,601.773C174.666,609.318,171.194,619.761,171,632.529
		C152.911,627.468,138.287,636.537,129.601,645.488C122.032,630.156,112.522,623.056,90.001,623.529
		C89.344,614.334,90.479,605.359,93.961,599.049C97.41,592.799,106.854,591.451,103.523,578.883
		C101.979,573.057,95.55,570.613,93.443,565.473C92.189,562.414,91.752,556.44,91.442,552.61
		C91.757,538.692,97.236,533.651,99.362,518.049C96.901,521.111,95.832,525.559,92.882,528.129
		C90.599,507.164,100.061,493.299,109.48,483.492C110.995,486.463,113.585,489.785,117.362,491.049
		C112.795,483.803,109.79,468.824,113.042,461.168C122.938,466.135,137.154,462.811,144.362,456.488
		C145.998,455.054,147.362,451.875,149.042,451.088C169.53,447.604,178.778,435.904,178.927,422.926
		C183.216,418.608,192.867,410.768,190.082,398.889C189.598,396.823,188.399,394.973,187.562,393.489
		C189.094,381.153,185.615,366.141,165.602,366.85C163.607,366.871,161.703,367.786,159.842,367.93
		C138.812,369.549,128.108,352.45,135.362,333.008C143.465,311.294,128.214,330.094,128.162,340.569
		C125.077,358.145,137.633,370.913,155.162,370.809C158.42,377.391,161.932,382.856,168.122,387.37
		C165.585,382.708,159.984,376.567,159.726,370.452C160.678,370.388,162.575,369.661,162.809,370.493
		C165.089,378.626,175.928,388.946,183.243,392.05C178.897,396.948,174.719,404.081,173.884,411.13
		C173.511,414.275,174.663,418.198,173.524,419.771C172.442,421.261,166.63,421.232,163.804,422.212
		C151.44,424.946,142.481,437.843,142.106,447.89C119.495,446.355,119.334,452.283,109.444,447.851
		C87.206,437.88,71.386,398.814,72.364,376.57C73.808,343.748,96.963,316.932,125.644,302.77
		C128.503,301.359,136.703,297.499,139.191,297.556C143.689,300.681,162.942,314.119,180.724,315.731
		C166.522,311.814,144.333,295.227,141.158,291.265C138.679,290.774,132.18,294.197,128.884,294.491
		C73.508,299.43,62.109,227.588,102.244,201.611C99.01,197.391,93.606,193.051,92.164,187.211
		C90.909,182.128,92.561,176.766,95.404,173.171C97.07,172.197,97.264,173.302,99.004,174.251
		C81.05,150.791,103.548,138.517,92.884,120.611C94.641,119.635,98.36,119.909,98.95,118.683
		C94.339,117.439,90.221,114.329,86.763,111.611C81.019,107.093,75.565,101.901,74.523,94.331
		C72.963,82.995,78.701,72.031,78.483,61.211C78.348,54.498,75.544,49.204,73.443,43.211
		C77.675,43.923,78.372,38.992,82.083,37.811C84.002,37.2,86.451,38.709,88.563,38.891
		C98.08,39.71,101.369,36.712,104.676,29.012C116.36,58.335,154.693,36.318,150.123,87.851
		C152.028,87.458,152.07,87.332,153.002,86.771C171.569,101.941,190.052,95.101,187.923,122.771
		C187.947,125.441,186.526,129.321,187.435,131.653C189.658,138.303,202.29,140.836,201.963,160.211
		C205.493,160.926,205.622,149.161,205.202,146.891C207.744,143.8,210.39,145.506,213.202,146.687
		C210.441,148.09,206.906,150.153,206.283,154.811C208.303,152.787,213.109,149.089,219.243,149.051
		C221.095,149.039,222.687,149.517,224.643,150.131C219.005,154.456,209.983,156.342,207.723,162.371
		C213.798,158.842,223.393,154.762,234.363,154.451C235.952,154.99,235.443,158.461,236.523,159.491
		C237.465,160.389,241.541,160.658,244.083,161.291C276.21,169.282,304.449,191.835,305.644,234.011
		C304.527,251.077,293.678,267.037,283.323,275.771C269.009,287.847,256.436,294.188,239.764,295.931
		C237.455,300.505,229.648,304.749,229.323,305.291C233.147,305.362,236.443,303.741,239.764,302.051
		C242.056,300.884,243.307,299.245,245.728,298.502C259.851,296.983,272.15,291.022,282.964,284.051
		C320.322,287.058,352.552,330.209,349.923,362.531C349.562,371.369,345.181,379.027,340.923,385.211
		C330.887,399.789,318.825,414.025,311.486,430.588C304.354,431.018,298.97,433.295,294.483,435.971
		C298.623,435.065,303.356,432.606,309.602,433.09C307.812,436.399,307.263,437.596,304.775,438.629
		C298.806,438.238,286.033,442.781,283.322,447.49C276.916,439.867,265.691,437.261,254.009,440.131
		C252.841,426.777,242.752,417.912,228.81,416.608C228.735,415.337,228.087,414.094,228.184,413.21
		C233.613,404.778,236.841,390.331,230.043,378.011C251.069,368.218,266.979,355.398,268.923,326.532
		C268.928,323.537,266.61,317.428,265.444,319.78C258.377,334.037,261.999,357.099,238.684,371.533
		C234.807,373.933,229.127,376,225.724,378.373C222.072,382.049,220.51,390.369,221.043,397.812
		C221.54,404.746,224.542,409.861,226.083,415.812C226.608,417.837,225.994,421.474,226.083,423.732
		C226.563,436.076,236.056,444.318,244.804,446.412C246.558,446.832,248.333,446.658,250.203,446.773
		C258.335,461.585,273.49,456.72,280.083,453.613C283.028,453.349,288.315,455.9,291.243,454.693
		C293.805,464.291,290.745,474.109,290.163,482.773C295.425,475.834,297,459.15,300.243,451.812
		C309.667,440.335,331.624,459.48,335.883,468.732C333.525,466.961,326.462,465.187,325.804,468.732
		C325.444,474.623,347.871,473.767,344.524,498.972C352.603,489.488,344.668,477.956,342.724,474.853
		C347.437,476.791,348.848,482.658,352.083,487.812C365.081,507.935,363.104,511.13,366.123,525.613
		C361.233,525.883,358.521,528.33,355.684,530.652C359.838,529.547,366.644,526.547,369.364,530.652
		C362.002,530.201,350.105,533.636,348.843,543.972C347.292,543.937,344.391,544.986,342.934,544.695
		C339.171,539.674,335.166,537.72,329.043,537.853C314.692,538.16,301.214,550.515,305.282,568.091
		C310.766,565.312,336.196,541.062,370.803,549.011C376.022,550.21,382.311,553.202,385.563,556.212
		C392.376,562.517,393.9,576.216,390.963,586.452C379.657,619.69,312.666,623.881,298.462,599.387zM117.637,451.746
		C123.221,449.379,141.089,448.369,144.72,451.808C142.746,457.771,132.769,461.507,123.015,461.761
		C114.961,461.866,110.702,454.688,117.637,451.746zM145.079,447.489C148.238,433.516,157.26,422.253,175.076,423.292
		C177.29,427.413,173.848,433.126,171.719,435.97C166.503,442.936,155.476,448.842,145.079,447.489zM185.198,393.342
		C193.276,403.207,184.773,416.676,177.84,420.129C172.386,411.309,179.319,397.672,185.198,393.342zM169.559,369.369
		C178.217,368.658,187.021,379.463,184.679,389.168C178.824,388.95,159.239,369.674,169.559,369.369zM304.442,441.371
		C304.684,447.314,295.482,452.869,288.787,453.187C286.814,453.283,283.874,452.255,283.149,451.386
		C286.339,443.807,295.922,441.774,304.442,441.371zM280.8,448.209C275.062,457.533,255.9,455.988,252.36,446.049
		C252.922,442.979,262.228,441.131,267.839,442.088C274.102,443.487,277.794,445.209,280.8,448.209zM245,444.196
		C235.893,441.391,226.275,429.966,229.319,420.13C239.882,419.814,247.79,426.982,250.559,434.89
		C252.842,439.912,250.948,446.028,245,444.196zM227.114,409.307C223.411,403.514,221.614,387.608,227.275,380.063
		C233.698,382.217,232.976,405.116,227.114,409.307zM338.76,543.61C338.977,546.192,333.619,548.182,331.199,549.37
		C321.663,554.05,313.905,558.565,306.359,564.489C303.742,551.27,317.037,537.471,332.278,539.649
		C334.627,539.985,338.612,541.873,338.76,543.61zM387.862,598.825C391.467,594.85,395.362,587.182,395.873,580.897
		C399.066,588.389,391.306,599.731,387.862,598.825zM396.523,573.616C396.935,565.249,393.833,556.899,389.627,553.151
		C397.773,554.479,400.591,567.014,396.523,573.616z"/>
	<path class="fil0" d="M152.639,243.009C148.61,240.635,144.319,237.694,139.319,235.449
		C134.881,233.456,128.678,230.536,123.119,232.569C135.105,236.21,143.529,251.056,147.959,255.969
		C151.169,257.078,157.697,251.175,158.399,249.849C161.058,244.828,161.911,238.553,165.239,232.929
		C166.859,229.294,169.666,226.429,169.199,223.209C161.564,227.693,157.519,235.769,152.639,243.009z"/>
	<path class="fil0" d="M127.439,637.93C136.592,629.489,143.955,626.182,157.676,623.573
		C145.918,622.424,130.798,628.535,127.439,637.93z"/>
	<path class="fil0" d="M194.759,187.209C193.031,188.043,191.233,192.18,192.599,195.129
		C193.511,196.913,196.666,196.805,197.878,198.293C196.798,202.166,194.272,207.518,189.359,207.73
		C186.164,207.868,181.467,205.473,181.079,202.33C180.883,200.74,182.315,198.858,182.519,197.29
		C184.077,185.338,176.121,176.669,168.119,174.25C177.694,185.078,182.902,197.356,167.76,209.89
		C163.177,213.683,154.003,216.799,147.96,218.89C139.22,221.913,131.092,226.93,122.76,225.01
		C112.07,222.547,111.7,208.696,118.44,202.33C110.201,205.716,108.748,215.886,113.4,221.77
		C115.047,223.854,116.563,224.729,118.44,225.889C113.184,225.916,108.349,218.444,107.92,222.424
		C107.359,227.63,115.726,229.177,121.68,228.97C126.412,229.001,131.481,226.571,135.72,227.17
		C142.51,228.129,143.137,235.997,149.76,236.53C145.631,219.809,161.555,217.84,170.28,211.69
		C171.871,210.568,175.305,207.504,176.454,207.382C178.818,207.129,182.03,209.924,185.76,210.249
		C194.524,211.013,198.622,205.17,200.52,198.729C208.083,200.438,208.906,211.879,207.36,219.969
		C215.114,210.374,209.853,185.644,194.759,187.209z"/>
	<path class="fil1" d="M91.439,35.289C99.195,34.396,102.138,23.987,103.071,15.849
		C103.844,9.108,98.861,0.649,94.319,5.409C87.06,13.017,81.57,15.16,74.233,17.888
		C67.837,20.266,58.036,19.123,58.679,27.009C59.022,31.219,67.988,37.978,71.999,37.809
		C75.072,37.68,78.521,33.096,83.159,33.129C85.958,33.149,89.001,35.57,91.439,35.289zM97.348,10.883
		C103.068,13.319,88.634,28.28,83.771,22.535C93.12,16.051,92.642,8.88,97.348,10.883zM64.004,23.807
		C66.174,20.807,76.101,24.202,81.845,23.7C82.974,29.541,61.329,27.505,64.004,23.807z"/>
	<path class="fil1" d="M107.279,298.089C94.041,295.724,87.399,287.078,79.13,279.268
		C75.341,286.197,70.874,297.904,60.839,302.768C64.893,294.27,72.889,279.884,72.575,270.527
		C72.001,267.156,71.019,263.937,69.918,260.973C51.824,276.023,48.128,320.652,16.007,345.779
		C10.124,351.871,6.661,353.031,13.472,363.666C20.283,374.303,32.338,380.529,39.238,389.889
		C44.741,397.35,43.024,411.213,49.372,417.535C56.649,424.783,71.564,422.478,76.679,415.088
		C54.413,369.014,78.621,331.666,107.279,298.089z"/>
	<path class="fil1" d="M354.599,349.209C385.028,333.627,385.432,310.636,385.2,291.249
		C387.178,274.338,422.683,257.336,388.248,250.648C348.12,240.489,334.464,205.986,310.93,203.308
		C313.236,207.805,314.702,215.389,315.361,219.609C320.882,226.992,341.014,235.321,348.121,240.489
		C354.227,244.929,318.316,237.739,314.642,235.449C313.35,252.277,305.772,262.819,297.722,272.889
		C327.322,288.8,356.034,312.057,354.599,349.209z"/>
	<path class="fil1" d="M331.977,456.516C337.866,451.844,341.541,445.709,344.879,438.489
		C355.305,438.313,359.233,425.278,355.68,414.009C351.94,417.665,350.387,423.111,348.839,427.691
		C346.818,425.853,347.889,420.154,348.48,417.611C342.354,420.711,343.704,429.89,343.44,433.81
		C339.731,429.138,340.591,427.601,340.2,424.089C337.873,426.972,337.127,434.53,339.12,438.489
		C337.854,440.362,336.404,443.016,334.08,446.05C332.067,448.677,329.09,450.804,328.044,452.46
		C328.786,453.11,330.225,454.239,331.977,456.516z"/>
	<path class="fil2" d="M385.56,556.209C382.308,553.199,376.019,550.207,370.8,549.008
		C336.193,541.059,310.763,565.309,305.279,568.088C301.211,550.512,314.689,538.156,329.04,537.85
		C335.163,537.717,339.168,539.67,342.931,544.692C344.388,544.983,347.289,543.934,348.84,543.969
		C350.102,533.633,361.998,530.198,369.361,530.649C366.641,526.544,359.836,529.544,355.681,530.649
		C358.519,528.327,361.231,525.879,366.12,525.61C363.101,511.128,365.078,507.932,352.08,487.809
		C348.845,482.655,347.434,476.788,342.721,474.85C344.664,477.954,352.6,489.485,344.521,498.969
		C347.869,473.764,325.441,474.619,325.801,468.729C326.459,465.184,333.522,466.958,335.88,468.729
		C331.621,459.477,309.664,440.333,300.24,451.809C296.997,459.147,295.422,475.83,290.16,482.77
		C290.742,474.106,293.802,464.288,291.24,454.69C288.312,455.897,283.025,453.346,280.08,453.61
		C273.487,456.717,258.332,461.583,250.2,446.77C248.33,446.655,246.554,446.829,244.801,446.409
		C236.053,444.315,226.561,436.073,226.08,423.729C225.991,421.471,226.605,417.834,226.08,415.809
		C224.539,409.858,221.537,404.743,221.04,397.809C220.507,390.366,222.068,382.045,225.721,378.37
		C229.124,375.997,234.804,373.931,238.681,371.53C261.995,357.096,258.373,334.034,265.441,319.777
		C266.607,317.425,268.925,323.534,268.92,326.529C266.976,355.395,251.066,368.215,230.04,378.008
		C236.838,390.328,233.609,404.776,228.181,413.207C228.084,414.092,228.732,415.334,228.807,416.605
		C242.749,417.91,252.838,426.775,254.006,440.128C265.689,437.259,276.913,439.864,283.319,447.487
		C286.03,442.778,298.803,438.235,304.772,438.626C307.26,437.593,307.809,436.396,309.599,433.087
		C303.353,432.603,298.62,435.062,294.48,435.968C298.967,433.292,304.351,431.015,311.483,430.585
		C318.822,414.023,330.883,399.786,340.92,385.208C345.178,379.024,349.559,371.366,349.92,362.528
		C352.549,330.206,320.319,287.054,282.961,284.048C272.147,291.018,259.848,296.98,245.725,298.499
		C243.304,299.243,242.053,300.881,239.761,302.048C236.44,303.738,233.144,305.359,229.32,305.288
		C229.645,304.746,237.453,300.502,239.761,295.928C256.433,294.185,269.005,287.844,283.32,275.768
		C293.675,267.035,304.524,251.074,305.641,234.008C304.447,191.832,276.207,169.279,244.08,161.288
		C241.538,160.656,237.463,160.387,236.52,159.488C235.44,158.458,235.949,154.987,234.36,154.448
		C223.39,154.759,213.796,158.839,207.72,162.368C209.98,156.339,219.002,154.453,224.64,150.128
		C222.684,149.515,221.091,149.036,219.24,149.048C213.105,149.086,208.3,152.783,206.28,154.808
		C206.904,150.151,210.439,148.087,213.199,146.684C210.387,145.503,207.742,143.797,205.199,146.888
		C205.619,149.158,205.49,160.923,201.96,160.208C202.287,140.833,189.655,138.3,187.432,131.65
		C186.523,129.318,187.945,125.439,187.92,122.768C190.049,95.098,171.566,101.938,152.999,86.768
		C152.067,87.33,152.024,87.455,150.12,87.848C154.689,36.315,116.357,58.332,104.673,29.009
		C101.366,36.709,98.077,39.707,88.56,38.888C86.448,38.706,83.999,37.197,82.08,37.808
		C78.369,38.989,77.672,43.92,73.44,43.208C75.541,49.201,78.345,54.495,78.48,61.208
		C78.698,72.028,72.96,82.992,74.52,94.328C75.562,101.898,81.016,107.09,86.76,111.608
		C90.218,114.327,94.336,117.437,98.947,118.68C98.357,119.906,94.638,119.632,92.881,120.608
		C103.545,138.513,81.048,150.787,99.001,174.248C97.261,173.299,97.067,172.194,95.401,173.168
		C92.559,176.763,90.906,182.125,92.161,187.208C93.602,193.049,99.006,197.389,102.241,201.608
		C62.106,227.585,73.505,299.427,128.881,294.488C132.177,294.194,138.676,290.772,141.155,291.262
		C144.33,295.224,166.519,311.811,180.721,315.728C162.939,314.116,143.686,300.678,139.188,297.553
		C136.699,297.496,128.5,301.356,125.641,302.767C96.96,316.929,73.805,343.745,72.361,376.567
		C71.383,398.811,87.203,437.878,109.441,447.848C119.331,452.28,119.492,446.352,142.103,447.887
		C142.478,437.84,151.437,424.944,163.801,422.209C166.627,421.229,172.439,421.258,173.521,419.768
		C174.661,418.196,173.508,414.272,173.881,411.127C174.716,404.078,178.895,396.945,183.24,392.047
		C175.925,388.943,165.086,378.623,162.806,370.49C162.573,369.658,160.675,370.385,159.723,370.449
		C159.982,376.564,165.583,382.705,168.119,387.367C161.929,382.853,158.417,377.388,155.159,370.806
		C137.631,370.91,125.074,358.142,128.159,340.566C128.21,330.091,143.461,311.291,135.359,333.005
		C128.106,352.446,138.81,369.546,159.839,367.927C161.699,367.782,163.604,366.868,165.599,366.847
		C185.612,366.138,189.091,381.15,187.559,393.486C188.395,394.97,189.594,396.82,190.079,398.886
		C192.865,410.765,183.213,418.605,178.924,422.923C178.775,435.902,169.528,447.601,149.039,451.085
		C147.359,451.872,145.995,455.052,144.359,456.485C137.151,462.807,122.935,466.131,113.039,461.165
		C109.787,468.821,112.791,483.8,117.359,491.046C113.582,489.782,110.991,486.46,109.477,483.489
		C100.059,493.296,90.596,507.161,92.879,528.126C95.829,525.556,96.898,521.108,99.359,518.046
		C97.234,533.648,91.755,538.689,91.439,552.607C91.749,556.437,92.186,562.412,93.44,565.47
		C95.547,570.611,101.976,573.054,103.52,578.88C106.851,591.448,97.408,592.796,93.958,599.046
		C90.476,605.357,89.341,614.331,89.998,623.526C112.519,623.053,122.029,630.153,129.598,645.485
		C138.284,636.534,152.908,627.465,170.997,632.526C171.191,619.758,174.663,609.315,180.236,601.77L178.076,598.608
		C169.721,605.637,168.072,615.126,167.037,621.725C166.207,613.098,169.556,605.229,172.797,599.045
		C173.704,597.315,175.561,596.031,175.677,594.365C175.87,591.586,173.092,587.34,172.437,583.564
		C169.525,566.765,173.47,551.972,180.717,541.084C172.032,538.861,153.316,531.154,147.597,523.084
		C184.34,544.391,214.847,538.988,250.917,517.686C254.319,515.676,262.322,510.522,265.316,511.206
		C272.724,512.895,262.411,521.925,260.996,522.726C267.594,530.425,279.293,530.445,285.837,537.847
		C296.146,549.505,291.417,570.462,292.316,588.966C293.097,585.827,295.149,575.04,302.757,571.325
		C297.956,578.059,292.849,589.007,298.459,599.384C312.663,623.878,379.654,619.687,390.957,586.446
		C393.896,576.213,392.373,562.514,385.56,556.209zM345.417,355.319C351.814,378.901,328.893,385.631,325.439,370.809
		C327.135,373.049,329.852,376.493,334.158,375.444C351.466,371.237,332.338,345.174,324.906,339.823
		C319.981,333.786,323.64,330.983,329.671,336.346C334.264,340.43,338.194,347.924,341.278,353.168
		C342.972,352.528,345.181,352.672,345.417,355.319zM320.039,337.328C320.325,337.887,328.825,347.98,330.479,349.209
		C331.943,350.295,336.409,354.85,332.999,356.77C329.142,358.94,320.31,342.59,320.039,337.328zM334.079,330.129
		C338.843,334.943,348.481,346.264,343.079,348.129C339.548,349.348,337.991,343.172,336.599,340.209
		C333.775,334.195,328.911,327.769,322.2,325.449C318.395,324.135,313.106,324.651,310.319,327.609
		C318.02,317.487,329.975,325.98,334.079,330.129zM238.815,381.147C242.885,388.174,244.914,399.758,243.472,406.131
		C242.628,406.848,240.201,407.178,238.533,407.069C242.655,401.672,240.445,388.02,238.815,381.147zM257.622,430.733
		C254.752,419.879,246.227,415.762,238.117,413.671C246.325,412.589,257.713,419.794,259.959,428.423L257.622,430.733z
		M283.478,437.071C284.345,437.813,283.497,438.735,283.175,439.882C279.352,435.62,271.908,430.634,260.78,432.89
		C267.261,428.659,275.993,430.285,283.478,437.071zM77.558,374.104C67.948,373.456,79.899,353.868,98.64,353.53
		C107.701,353.237,106.392,356.077,98.766,357.135C91.963,358.08,86.445,362.438,83.16,367.569
		C81.486,370.182,81.302,374.356,77.558,374.104zM88.199,389.168C84.434,389.783,81.496,387.713,82.079,384.129
		C92.856,384.369,98.468,376.955,105.119,371.889C103.507,378.075,92.709,387.659,88.199,389.168zM94.95,370.584
		C89.57,374.105,85.217,371.898,91.487,367.031C95.365,364.019,100.809,362.711,106.2,361.808
		C103.097,365.381,99.077,367.883,94.95,370.584zM171.24,392.01C171.897,391.36,172.493,392.1,173.949,392.865
		C168.845,398.369,167.42,402.082,167.52,412.535C164.437,401.662,166.427,396.784,171.24,392.01zM159.224,416.815
		C143.399,425.801,138.902,433.338,138.225,439.743L135.169,438.257C137.14,429.2,147.689,420.752,159.224,416.815z
		M131.799,440.002L132.238,442.672C126.774,442.297,118.493,444.529,114.201,445.639
		C118.444,442.44,124.917,440.119,131.799,440.002zM98.626,534.135C99.109,528.242,116.941,529.707,122.109,535.166
		C116.191,532.697,109.381,535.5,104.493,536.762C103.068,537.129,98.278,538.371,98.626,534.135zM116.513,539.043
		C107.158,540.397,104.715,543.822,102.22,544.707C99.336,545.728,99.68,542.465,101.568,541.367
		C104.77,539.504,111.179,538.719,116.513,539.043zM94.319,620.289C94.117,616.582,94.923,612.514,95.758,609.488
		C96.931,613.029,97.909,615.179,99.358,616.328C102.13,616.871,110.335,618.66,113.976,622.674
		C110.056,620.039,99.052,617.264,94.319,620.289zM105.119,566.649C99.687,566.485,95.345,563.727,96.479,554.77
		C97.834,558.479,99.67,561.643,103.679,562.329C114.173,564.126,121.797,555.571,128.879,548.29
		C125.45,556.368,117.712,567.03,105.119,566.649zM157.676,623.573C143.955,626.182,136.592,629.489,127.439,637.93
		C130.798,628.535,145.918,622.424,157.676,623.573zM165.239,232.929C161.911,238.553,161.058,244.827,158.399,249.849
		C157.697,251.175,151.169,257.078,147.959,255.969C143.529,251.056,135.105,236.21,123.119,232.569
		C128.678,230.536,134.881,233.456,139.319,235.449C144.319,237.694,148.611,240.636,152.639,243.009
		C157.519,235.769,161.564,227.693,169.199,223.209C169.666,226.429,166.859,229.294,165.239,232.929zM207.359,219.969
		C208.905,211.879,208.082,200.439,200.519,198.729C198.622,205.17,194.523,211.013,185.759,210.249
		C182.029,209.924,178.817,207.129,176.453,207.382C175.304,207.504,171.87,210.568,170.279,211.69
		C161.554,217.839,145.63,219.809,149.759,236.53C143.136,235.997,142.509,228.13,135.719,227.17
		C131.48,226.571,126.411,229.001,121.679,228.97C115.725,229.177,107.358,227.63,107.919,222.424
		C108.348,218.444,113.183,225.916,118.439,225.889C116.562,224.729,115.046,223.854,113.399,221.77
		C108.747,215.886,110.2,205.716,118.439,202.33C111.699,208.696,112.068,222.547,122.759,225.01
		C131.091,226.929,139.219,221.913,147.959,218.89C154.002,216.799,163.176,213.683,167.759,209.89
		C182.902,197.356,177.694,185.078,168.118,174.25C176.12,176.669,184.076,185.338,182.518,197.29
		C182.314,198.858,180.881,200.74,181.078,202.33C181.467,205.473,186.163,207.868,189.358,207.73
		C194.271,207.518,196.797,202.166,197.877,198.293C196.665,196.806,193.51,196.913,192.598,195.129
		C191.232,192.18,193.031,188.043,194.758,187.209C209.853,185.644,215.114,210.374,207.359,219.969zM336.038,483.971
		C336.314,486.141,333.124,485.815,331.363,486.612C325.876,487.829,323.217,492.091,320.399,495.008
		C320.597,488.774,327.714,483.182,331.512,482.5C333.849,482.08,335.889,482.799,336.038,483.971zM325.364,477.858
		C331.608,475.762,334.287,481.026,327.242,481.913C323.24,483.001,317.206,485.993,312.119,494.649
		C311.524,486.875,319.56,479.805,325.364,477.858zM308.159,541.088C313.554,535.885,323.915,532.272,333.72,535.328
		C323.529,533.547,313.2,536.568,307.172,545.322C306.771,545.904,305.033,549.047,304.333,546.672
		C304.319,544.916,307.284,541.932,308.159,541.088z"/>
	<path class="fil3" d="M144.719,451.809C141.089,448.37,123.22,449.379,117.636,451.747
		C110.701,454.688,114.961,461.866,123.013,461.763C132.768,461.508,142.745,457.772,144.719,451.809z"/>
	<path class="fil3" d="M229.319,420.129C226.275,429.965,235.892,441.391,245,444.195
		C250.948,446.027,252.842,439.912,250.56,434.888C247.79,426.981,239.883,419.813,229.319,420.129z"/>
	<path class="fil3" d="M252.359,446.049C255.899,455.988,275.061,457.533,280.799,448.209
		C277.793,445.209,274.101,443.486,267.838,442.088C262.228,441.131,252.921,442.979,252.359,446.049z"/>
	<path class="fil3" d="M227.275,380.063C221.614,387.608,223.411,403.514,227.114,409.307
		C232.976,405.116,233.698,382.217,227.275,380.063z"/>
	<path class="fil3" d="M283.149,451.387C283.874,452.256,286.814,453.283,288.787,453.188
		C295.482,452.87,304.684,447.315,304.442,441.372C295.922,441.774,286.339,443.807,283.149,451.387z"/>
	<path class="fil3" d="M306.359,564.489C313.905,558.565,321.663,554.05,331.199,549.37
		C333.619,548.182,338.976,546.192,338.76,543.61C338.613,541.874,334.627,539.985,332.279,539.649
		C317.037,537.471,303.742,551.27,306.359,564.489z"/>
	<path class="fil3" d="M389.627,553.151C393.833,556.899,396.936,565.249,396.523,573.616
		C400.591,567.014,397.773,554.479,389.627,553.151z"/>
	<path class="fil3" d="M387.862,598.825C391.305,599.731,399.066,588.389,395.873,580.897
		C395.362,587.182,391.468,594.85,387.862,598.825z"/>
	<path class="fil3" d="M177.84,420.129C184.773,416.676,193.276,403.207,185.198,393.342
		C179.319,397.672,172.386,411.309,177.84,420.129z"/>
	<path class="fil3" d="M89.65,626.334C90.387,642.611,107.964,652.906,127.673,647.93
		C123.607,633.164,107.137,622.842,89.65,626.334z"/>
	<path class="fil3" d="M169.559,369.369C159.239,369.674,178.824,388.949,184.679,389.168
		C187.021,379.463,178.217,368.659,169.559,369.369z"/>
	<path class="fil3" d="M132.479,647.649C144.115,660.43,173.108,652.196,173.496,636.837
		C159.86,627.348,137.799,638.344,132.479,647.649z"/>
	<path class="fil3" d="M89.957,601.104C83.778,602.477,81.497,618.682,88.199,623.168
		C87.047,616.315,89.37,606.746,89.957,601.104z"/>
	<path class="fil3" d="M173.52,633.248C176.537,632.898,180.98,629.459,183.239,626.408
		C188.468,619.865,188.793,608.162,181.675,603.217C176.947,610.16,171.678,621.969,173.52,633.248z"/>
	<path class="fil3" d="M352.8,543.248C365.818,542.951,375.448,546.039,384.84,549.369
		C384.698,531.905,357.112,528.278,352.8,543.248z"/>
	<path class="fil3" d="M171.719,435.969C173.848,433.125,177.29,427.412,175.076,423.291
		C157.26,422.252,148.238,433.516,145.079,447.488C155.476,448.842,166.503,442.936,171.719,435.969z"/>
</g>
</svg>
