<?xml version="1.0" encoding="utf-8"?>
<!-- Generator: Adobe Illustrator 18.1.0, SVG Export Plug-In . SVG Version: 6.00 Build 0)  -->
<!DOCTYPE svg PUBLIC "-//W3C//DTD SVG 1.0//EN" "http://www.w3.org/TR/2001/REC-SVG-20010904/DTD/svg10.dtd"[]>
<svg version="1.0" id="Layer_1" xmlns="http://www.w3.org/2000/svg" xmlns:xlink="http://www.w3.org/1999/xlink" x="0px" y="0px" viewBox="0 0 500 500" enable-background="new 0 0 500 500" xml:space="preserve">
  <style type="text/css">.fil0{fill:#231F20}
.fil1{fill:#FFFFFF}
.fil2{fill:#B1DED5}
.fil3{fill:#7193CC}
</style>
<g>
	<path d="M342.443,348.841c1.463-1.206,2.342-2.88,2.547-4.628c-0.078,0.133-0.164,0.263-0.233,0.399   L342.443,348.841z" class="fil0" />
	<path d="M150.723,152.39c-0.463-0.287-0.929-0.562-1.397-0.825c-0.159-0.09-0.32-0.171-0.48-0.258   c-0.31-0.169-0.619-0.339-0.93-0.497c-0.191-0.097-0.382-0.186-0.573-0.279c-0.281-0.138-0.563-0.277-0.845-0.406   c-0.207-0.095-0.415-0.182-0.623-0.272c-0.268-0.117-0.535-0.235-0.803-0.344c-0.218-0.089-0.438-0.171-0.656-0.255   c-0.258-0.1-0.517-0.2-0.775-0.294c-0.226-0.081-0.453-0.156-0.68-0.232c-0.252-0.085-0.503-0.17-0.756-0.249   c-0.233-0.073-0.467-0.14-0.7-0.208c-0.245-0.071-0.491-0.143-0.736-0.208c-0.24-0.064-0.479-0.123-0.719-0.181   c-0.239-0.058-0.477-0.116-0.716-0.17c-0.246-0.055-0.491-0.105-0.737-0.154c-0.232-0.047-0.464-0.092-0.696-0.133   c-0.252-0.045-0.503-0.086-0.755-0.126c-0.223-0.035-0.446-0.068-0.669-0.099c-0.26-0.035-0.52-0.068-0.779-0.097   c-0.212-0.024-0.424-0.046-0.636-0.066c-0.268-0.025-0.536-0.048-0.803-0.067c-0.201-0.014-0.402-0.026-0.602-0.036   c-0.276-0.014-0.552-0.027-0.826-0.035c-0.188-0.005-0.376-0.008-0.563-0.01c-0.287-0.003-0.574-0.005-0.859-0.001   c-0.169,0.002-0.338,0.008-0.506,0.013c-0.302,0.009-0.603,0.019-0.903,0.036c-0.147,0.008-0.293,0.02-0.44,0.03   c-0.319,0.022-0.638,0.046-0.955,0.078c-0.119,0.012-0.236,0.027-0.355,0.04c-0.342,0.038-0.683,0.077-1.022,0.126   c-0.082,0.012-0.163,0.026-0.244,0.038c-0.373,0.056-0.746,0.115-1.115,0.184c-0.025,0.005-0.049,0.01-0.074,0.015   c-6.091,1.148-11.577,3.999-15.654,8.167c-0.451,0.461-0.89,0.932-1.305,1.424c67.382-15.738,73.423,91.588,73.656,96.319   c0.005,0.107,0.009,0.18,0.009,0.18C189.895,201.617,172.166,165.689,150.723,152.39z" class="fil0" />
	<path d="M186.077,404.434c4.932,0.009,9.031-6.149,7.641-12.251c0,0-6.282,15.317-22.432-0.71   C173.26,397.249,180.286,404.422,186.077,404.434z" class="fil0" />
	<path d="M326.744,349.784l0.28-3.504l4.694-5.529l20.072-8.033l16.565-6.843c0,0,4.339-3.692,6.607-5.499   c-15.816,12.391-34.358,10.741-43.46,17.159C327.708,340.212,325.591,344.798,326.744,349.784z" class="fil0" />
	<path d="M222.843,256.12c-0.108,0.199-0.212,0.399-0.319,0.599c-0.739,1.375-1.457,2.761-2.151,4.161   c-0.137,0.277-0.272,0.555-0.408,0.833c-0.658,1.348-1.296,2.708-1.912,4.078c-0.131,0.292-0.262,0.583-0.392,0.876   c-0.62,1.402-1.216,2.815-1.791,4.238c-0.099,0.246-0.202,0.491-0.3,0.738c-0.624,1.568-1.221,3.149-1.79,4.741   c-0.033,0.093-0.069,0.185-0.102,0.277c-1.858,5.235-3.419,10.595-4.663,16.057c-1.049,4.607-1.885,9.283-2.473,14.02   c-0.375,3.208-0.677,6.407-0.891,9.591c-0.088,1.308-0.16,2.613-0.216,3.915c-0.001,0.019-0.001,0.038-0.002,0.058   c-0.054,1.274-0.091,2.545-0.11,3.811c0,0.031-0.001,0.063-0.002,0.094c-0.018,1.238-0.017,2.472,0,3.702   c0.002,0.135,0.005,0.27,0.008,0.404c0.02,1.158,0.056,2.311,0.111,3.461c0.003,0.069,0.005,0.139,0.009,0.208   c0.058,1.167,0.138,2.329,0.234,3.486c0.018,0.218,0.038,0.436,0.058,0.654c0.097,1.089,0.209,2.174,0.343,3.253   c0.009,0.072,0.016,0.145,0.025,0.218c0.141,1.115,0.308,2.223,0.49,3.326c0.043,0.258,0.087,0.515,0.132,0.772   c0.193,1.109,0.401,2.213,0.639,3.309c2.287,5.049,7.771,5.803,12.861,6.153c1.146,0.018,2.293,0.019,3.439,0.01   c0.388-0.003,0.776-0.014,1.165-0.02c0.758-0.012,1.515-0.027,2.273-0.052c0.468-0.015,0.936-0.036,1.404-0.055   c0.675-0.028,1.351-0.06,2.026-0.098c0.506-0.028,1.011-0.06,1.517-0.093c0.634-0.042,1.267-0.09,1.901-0.14   c0.531-0.042,1.062-0.085,1.593-0.133c0.601-0.055,1.202-0.117,1.802-0.179c0.555-0.057,1.109-0.112,1.663-0.176   c0.546-0.063,1.09-0.136,1.635-0.205c1.417-0.18,2.833-0.378,4.245-0.599c0.212-0.033,0.425-0.062,0.637-0.096   c0.744-0.12,1.486-0.253,2.228-0.385c0.367-0.065,0.734-0.127,1.101-0.195c0.741-0.137,1.48-0.284,2.219-0.433   c0.357-0.072,0.714-0.143,1.071-0.218c0.758-0.159,1.515-0.324,2.27-0.496c0.317-0.072,0.634-0.145,0.951-0.219   c0.795-0.186,1.589-0.376,2.381-0.575c0.233-0.059,0.466-0.12,0.699-0.18c3.957-1.016,7.879-2.196,11.749-3.55l0,0   c21.316-7.453,41.119-20.017,57.187-37.593c1.667-2.594,4.733-4.624,6.231-7.588c20.459-25.228,32.351-60.615,30.537-94.631   c-1.225-6.711,0.646-14.19-3.785-20.149c-1.963-2.027-4.375-1.952-7.113-2.728c-18.145-0.93-35.33,2.179-52.016,7.196   c-32.369,11.015-58.906,33.449-75.774,61.92l0,0C224.564,253.015,223.691,254.56,222.843,256.12z M334.955,235.906   c5.1-15.254,12.667-26.47,16.899-25.053c4.234,1.418,3.533,14.933-1.566,30.186c-5.101,15.254-12.665,26.47-16.901,25.052   C329.152,264.675,329.855,251.159,334.955,235.906z M324.525,279.241c1.12-3.348,3.826-5.459,6.042-4.717   c2.218,0.742,3.107,4.059,1.989,7.406c-1.119,3.348-3.823,5.459-6.042,4.715C324.296,285.905,323.407,282.589,324.525,279.241z    M301.458,200.576c-85.895,64.561-86.905,142.658-72.823,143.625c0,0-8.702,3.384-13.115-2.899   C208.929,331.923,215.077,234.549,301.458,200.576z" class="fil0" />
	<path d="M315.949,128.19c-54.859,19.017-86.149,71.864-95.389,109.539c25.725-49.698,71.197-87.659,106.181-95.758   c29.885-6.919,55.107,6.311,63.391,38.583C391.852,141.194,355.531,114.47,315.949,128.19z" class="fil0" />
	<path d="M402.437,115.848c-13.967-30.91-41.761-51.774-68.992-67.521c-11.133-6.222-23.901-10.074-36.686-13.813   c-7.489-1.072-15.213-3.553-22.794-4.068c-16.236-1.428-31.317-2.215-46.377,1.916C169.285,42.45,120.393,94.158,98.155,145.056   c-5.674,17.051-16.887,30.824-22.037,48.187c-15.667,44.05-8.826,91.096,23.729,124.491   c24.746,32.159,45.635,69.071,52.665,107.807c4.855,26.746,11.03,38.703,19.723,42.226c11.341,4.594,19.673-1.535,25.181-7.847   c17.661-20.232,51.881-54.264,66.908-64.688c15.027-10.425,31.014-21.842,45.624-33.247c1.795,3.829,6.794,6.709,10.771,6.753   c42.167,0.472,70.913-36.522,85.962-76.837c-13.335,8.595-35.424,13.597-40.803,14.346c20.696-25.992,35.644-55.407,44.119-88.707   C418.574,182.886,417.095,146.752,402.437,115.848z M79.21,220.946c-0.244,24.052,7.289,59.362,28.172,80.032   c20.489,20.281,36.872,37.357,51.376,23.82c0,0-0.39,9.507-8.219,11.604C134.038,340.818,63.674,298.561,79.21,220.946z    M115.766,193.035c3.907-2.166,13.4,7.487,21.203,21.562c7.804,14.072,10.963,27.237,7.056,29.402   c-3.908,2.165-13.401-7.486-21.203-21.561C115.019,208.365,111.859,195.201,115.766,193.035z M148.338,251.779   c2.046-1.135,5.093,0.45,6.805,3.539c1.713,3.088,1.442,6.51-0.604,7.644c-2.046,1.134-5.093-0.45-6.805-3.538   C146.021,256.336,146.292,252.913,148.338,251.779z M399.779,218.553c-7.446,25.345-17.689,48.875-32.427,69.749   c-9.729,13.78-24.794,26.995-32.356,41.866c10.289-11.423,28.659-11.552,43.716-16.244v0c1.892-0.59,3.73-1.255,5.495-2.019   c0.087-0.038,0.175-0.074,0.262-0.112c0.815-0.359,1.612-0.744,2.392-1.151c0.135-0.071,0.268-0.145,0.402-0.217   c0.783-0.422,1.553-0.862,2.294-1.342c-0.69,1.218-1.384,2.397-2.08,3.558c-0.134,0.223-0.267,0.448-0.401,0.669   c-0.673,1.111-1.348,2.196-2.024,3.255c-0.125,0.196-0.251,0.387-0.376,0.582c-0.667,1.033-1.335,2.046-2.005,3.031   c-0.044,0.065-0.088,0.132-0.132,0.196c-0.7,1.024-1.402,2.015-2.104,2.987c-0.135,0.187-0.27,0.374-0.405,0.559   c-0.693,0.948-1.386,1.874-2.08,2.773c-0.099,0.128-0.198,0.253-0.298,0.38c-0.679,0.873-1.359,1.725-2.039,2.551   c-0.059,0.071-0.117,0.146-0.176,0.217c-0.713,0.863-1.425,1.695-2.137,2.508c-0.119,0.135-0.237,0.27-0.356,0.404   c-0.715,0.808-1.43,1.596-2.143,2.356c-0.049,0.052-0.098,0.102-0.147,0.154c-0.714,0.757-1.427,1.49-2.138,2.2   c-0.055,0.055-0.11,0.111-0.164,0.166c-0.726,0.721-1.449,1.414-2.171,2.087c-0.087,0.081-0.173,0.161-0.26,0.241   c-1.488,1.376-2.967,2.653-4.433,3.835c-0.036,0.029-0.071,0.058-0.107,0.087c-0.735,0.59-1.467,1.156-2.195,1.7   c-0.045,0.033-0.089,0.066-0.134,0.099c-1.485,1.104-2.954,2.114-4.403,3.033c-0.012,0.008-0.024,0.015-0.036,0.023   c-0.735,0.466-1.465,0.909-2.189,1.33c0,0,0,0,0,0l0,0c-2.832,1.646-5.574,2.951-8.19,3.964l0,0l0,0   c-0.799,0.309-1.587,0.591-2.362,0.847c-0.002,0.001-0.004,0.001-0.006,0.002c-0.774,0.256-1.535,0.485-2.283,0.69   c-0.002,0.001-0.004,0.001-0.007,0.002c-0.746,0.205-1.478,0.385-2.195,0.542c-0.005,0.001-0.01,0.002-0.015,0.003   c-0.715,0.156-1.415,0.29-2.1,0.401c-0.007,0.001-0.014,0.002-0.02,0.003c-0.682,0.111-1.349,0.201-1.999,0.27   c-0.01,0.001-0.019,0.002-0.029,0.003c-0.647,0.068-1.277,0.117-1.89,0.147c-0.012,0.001-0.025,0.014-0.037,0.015   c-0.609,0.029-1.201,0.047-1.775,0.047c-0.015,0-0.031,0-0.046,0c-0.569,0-1.121-0.044-1.654-0.083   c-0.018-0.001-0.036-0.01-0.055-0.011c-0.527-0.04-1.037-0.098-1.526-0.168c-0.022-0.003-0.043-0.008-0.064-0.011   c-0.484-0.07-0.95-0.154-1.395-0.25c-0.023-0.005-0.044-0.011-0.067-0.016c-0.44-0.097-0.862-0.206-1.262-0.326   c-0.023-0.007-0.045-0.015-0.068-0.022c-0.396-0.121-0.773-0.253-1.126-0.395c-0.021-0.008-0.041-0.017-0.061-0.026   c-0.351-0.143-0.683-0.295-0.991-0.457c-0.017-0.009-0.033-0.019-0.051-0.028c-0.307-0.163-0.593-0.334-0.854-0.514   c-0.012-0.008-0.023-0.017-0.035-0.025c-0.262-0.182-0.502-0.371-0.715-0.567c-0.006-0.005-0.011-0.011-0.017-0.016   c-0.216-0.2-0.408-0.407-0.571-0.619c-2.044-2.655,3.312-11.92,7.675-17.42c-11.062,9.223-20.905,20.127-33.016,28.727   c-3.248,2.213-6.515,4.464-9.786,6.736c0,0,0,0,0,0c-1.502,1.043-3.005,2.093-4.508,3.149c-0.07,0.049-0.14,0.099-0.211,0.148   c-4.369,3.071-8.737,6.197-13.083,9.381c-0.258,0.189-0.515,0.377-0.773,0.566c-5.906,4.339-11.764,8.785-17.511,13.348   c-0.075,0.059-0.15,0.119-0.225,0.178c-11.738,9.33-23.008,19.144-33.265,29.512c-4.592,4.642-9.001,9.532-13.137,14.402   C199,443.991,196.818,446,194.536,448l0,0c0,0-0.001,0-0.001,0c-0.342,0-0.687,0.402-1.033,0.671   c-0.006,0.004-0.011-0.066-0.016-0.061c-0.349,0.27-0.701,0.498-1.055,0.757c-0.001,0.001-0.002-0.017-0.003-0.016   c-0.328,0.24-0.659,0.464-0.992,0.692c-0.048,0.033-0.095,0.061-0.143,0.093c-0.675,0.458-1.359,0.885-2.053,1.28   c-0.064,0.036-0.129,0.071-0.193,0.107c-0.309,0.172-0.619,0.337-0.931,0.493c-0.04,0.02-0.08,0.041-0.12,0.061   c-0.348,0.172-0.698,0.333-1.052,0.484c-0.063,0.027-0.126,0.051-0.189,0.078c-0.295,0.123-0.592,0.237-0.891,0.344   c-0.078,0.028-0.155,0.056-0.233,0.083c-0.356,0.121-0.714,0.233-1.076,0.33c-0.033,0.009-0.066,0.015-0.099,0.024   c-0.326,0.085-0.654,0.157-0.984,0.22c-0.094,0.018-0.188,0.035-0.282,0.051c-0.328,0.056-0.658,0.102-0.99,0.135   c-0.04,0.004-0.08,0.011-0.121,0.014c-0.368,0.033-0.739,0.048-1.113,0.051c-0.095,0.001-0.192-0.002-0.287-0.003   c-0.302-0.004-0.606-0.018-0.912-0.043c-0.089-0.007-0.178-0.012-0.268-0.021c-0.38-0.038-0.762-0.092-1.148-0.165   c-0.076-0.014-0.153-0.034-0.229-0.049c-0.32-0.066-0.643-0.144-0.968-0.234c-0.109-0.03-0.218-0.06-0.327-0.094   c-0.398-0.12-0.797-0.253-1.202-0.412c-12.037-5.564-12.988-19.777-16.451-30.388c-5.458-29.789-18.812-58.086-34.936-84.763   c-0.417-0.98,0.523-1.86,1.321-1.849c8.393,4.759,17.102,9.682,27.563,10.769c0.414-0.034,0.832-0.085,1.25-0.143   c0.107-0.015,0.213-0.029,0.319-0.046c0.383-0.06,0.764-0.133,1.143-0.218c0.148-0.033,0.294-0.072,0.44-0.109   c0.258-0.065,0.513-0.139,0.766-0.217c0.244-0.076,0.486-0.159,0.724-0.248c0.224-0.083,0.446-0.172,0.664-0.267   c0.19-0.083,0.379-0.17,0.564-0.263c0.287-0.144,0.567-0.297,0.839-0.466c0.001-0.001,0.002-0.001,0.003-0.002h0   c1.283-0.796,2.389-1.867,3.158-3.318c6.987-15.242,7.764-31.697,8.499-48.616c2.166-46.877-21.914-99.852-65.169-122.709   c-1.643-1.174-4.262-1.246-5.171-3.447l-0.428-2.355C114.508,112.548,160.788,73,210.532,51.27   c18.7-6.944,38.658-9.974,58.875-7.911c0.224,0.023,0.449,0.047,0.674,0.072c2.622,0.282,5.248,0.65,7.877,1.107   c0.255,0.044,0.51,0.09,0.766,0.136c1.294,0.233,2.589,0.481,3.884,0.758c0.006,0.001,0.013,0.003,0.019,0.004   c1.295,0.277,2.591,0.583,3.886,0.904c0.29,0.072,0.579,0.145,0.869,0.219c1.269,0.324,2.538,0.663,3.807,1.03   c0.02,0.006,0.04,0.011,0.06,0.017c1.278,0.371,2.555,0.771,3.831,1.186c0.311,0.101,0.621,0.203,0.932,0.307   c1.277,0.426,2.554,0.866,3.829,1.337c18.407,5.775,34.162,16.044,49.635,26.612c4.203,3.066,7.7,6.249,11.737,9.633   c8.221,6.56,14.68,15.587,21.694,24.015C403.729,142.348,408.261,179.424,399.779,218.553z" class="fil0" />
	<path d="M177.043,416.432c12.713,4.529,10.782,22.013,0.868,16.221c0.808,8.709,12.513,10.565,15.114,0.488   C195.627,423.064,186.066,415.087,177.043,416.432z" class="fil0" />
	
		<ellipse transform="matrix(0.4849 0.8746 -0.8746 0.4849 258.0092 -1.0495)" cx="129.896" cy="218.517" rx="29.137" ry="8.087" class="fil1" />
	
		<ellipse transform="matrix(0.4849 0.8746 -0.8746 0.4849 303.092 0.1267)" cx="151.438" cy="257.371" rx="6.394" ry="4.235" class="fil1" />
	<path d="M186.755,452.638c-0.295,0.123-0.592,0.237-0.891,0.344C186.163,452.875,186.46,452.76,186.755,452.638z" class="fil2" />
	<path d="M354.613,348.733c-0.735,0.466-1.465,0.909-2.189,1.33C353.148,349.642,353.877,349.199,354.613,348.733z" class="fil2" />
	<path d="M344.233,354.027c-0.799,0.309-1.587,0.591-2.362,0.847C342.646,354.618,343.434,354.336,344.233,354.027z" class="fil2" />
	<path d="M156.272,346.121c0.258-0.066,0.513-0.138,0.766-0.217C156.785,345.982,156.53,346.056,156.272,346.121z" class="fil2" />
	<path d="M157.762,345.656c0.224-0.084,0.446-0.171,0.664-0.267C158.208,345.484,157.987,345.573,157.762,345.656z" class="fil2" />
	<path d="M154.689,346.448c0.383-0.061,0.764-0.132,1.143-0.218C155.453,346.315,155.071,346.388,154.689,346.448z" class="fil2" />
	<path d="M361.38,343.878c-0.735,0.59-1.467,1.156-2.195,1.7C359.913,345.034,360.645,344.468,361.38,343.878z" class="fil2" />
	<path d="M176.825,453.28c-0.398-0.12-0.797-0.253-1.202-0.412C176.028,453.028,176.428,453.16,176.825,453.28z" class="fil2" />
	<path d="M178.12,453.608c-0.32-0.066-0.643-0.144-0.968-0.234C177.477,453.464,177.8,453.543,178.12,453.608z" class="fil2" />
	<path d="M179.498,453.823c-0.38-0.038-0.762-0.092-1.148-0.165C178.736,453.73,179.118,453.784,179.498,453.823z" class="fil2" />
	<path d="M341.865,354.876c-0.774,0.256-1.535,0.485-2.283,0.69C340.33,355.361,341.091,355.132,341.865,354.876z" class="fil2" />
	<path d="M270.08,43.431c2.622,0.282,5.248,0.65,7.877,1.107C275.329,44.081,272.703,43.713,270.08,43.431z" class="fil2" />
	<path d="M153.119,346.638c0.415-0.034,0.832-0.084,1.25-0.143C153.952,346.553,153.534,346.604,153.119,346.638z" class="fil2" />
	<path d="M375.063,116.9c-34.125-51.587-96.381-70.382-109.639-73.887c1.326,0.092,2.654,0.211,3.983,0.346   c-20.216-2.063-40.174,0.967-58.875,7.911c-49.744,21.73-96.024,61.278-109.81,112.944l0.428,2.355   c0.909,2.201,3.528,2.273,5.171,3.447c43.255,22.857,67.335,75.832,65.169,122.709c-0.736,16.919-1.512,33.374-8.499,48.616   c-0.769,1.451-1.875,2.522-3.158,3.318c2.307,0.228,8.591-0.479,12.779-13.596c4.055-12.703,13.644-55.373-6.389-102.119   c-16.66-38.871-42.396-55.993-56.677-57.129c-0.267-0.154-0.54-0.299-0.809-0.451c-0.988-3.794-0.619-8.747,1.042-14.521   c66.484-14.506,72.479,91.806,72.712,96.515c-0.233-4.731-6.274-112.057-73.656-96.319c0.415-0.492,0.854-0.963,1.305-1.424   c0,0,0,0,0,0c6.011-19.195,25.742-46.849,57.214-71.213c28.379-21.969,66.181-38.588,102.759-33.877   c-41.217,0-119.221,46.874-109.536,89.774c7.905,35.005,27.913,22.125,33.564,37.829c4.87,13.536,1.235,62.694-7.027,110.664   c-7.59,44.071-19.873,87.038-15.827,102.681c16.15,16.027,22.432,0.71,22.432,0.71c1.39,6.102-2.71,12.26-7.641,12.251   c-5.791-0.012-12.816-7.185-14.791-12.961c-7.886-10.649-5.132-39.257-23.291-36.582c-12.181,1.793-0.431,28.192,11.411,34.651   c10.769,5.875-2.747,28.237,7.747,46.652c8.436,14.802,23.284,12.481,27.382,11.508c2.281-1.849,4.464-3.86,6.583-5.658   c4.135-4.87,8.544-9.611,13.137-14.253c0,0,0,0-0.001,0.001c13.531-16.855,19.156-31.264,31.899-39.949   c12.717-8.666,24.676-9.617,37.676-16.334c3.271-2.272,6.538-4.523,9.786-6.736c12.111-8.6,21.953-19.505,33.016-28.727   c-9.954,21.849,10.42,19.426,17.601,17.981c2.616-1.012,5.358-2.318,8.19-3.964c4.5-3.968,25.916-23.501,26.288-36.139   c-15.056,4.692-33.427,4.821-43.716,16.244C345.029,298.944,436.559,209.861,375.063,116.9z M193.025,433.141   c-2.601,10.077-14.307,8.221-15.114-0.488c9.915,5.792,11.846-11.692-0.868-16.221   C186.066,415.087,195.627,423.064,193.025,433.141z M374.961,320.377c-4.042,13.816-25.004,15.328-29.971,23.836   c-0.205,1.748-1.085,3.422-2.547,4.628c0,0-6.552-9.09-15.699,0.944c-1.153-4.986,0.964-9.572,4.758-12.248   C340.603,331.118,359.145,332.768,374.961,320.377z M225.452,251.4c0.006,0.03,0.01,0.059,0.016,0.089   c16.868-28.47,43.406-50.905,75.774-61.92c16.686-5.017,33.871-8.126,52.016-7.196c2.737,0.776,5.149,0.702,7.113,2.728   c4.431,5.96,2.56,13.438,3.785,20.149c1.814,34.015-10.078,69.403-30.537,94.631c-1.498,2.964-4.565,4.994-6.231,7.588   c-16.068,17.577-35.87,30.14-57.187,37.593c-22.057,16.745-45.816,11.955-54.876,16.129c-10.671,4.917-7.7,16.998-15.884,20.253   c5.095-21.548,0.255-35.938,6.211-65.117c0,0,0,0,0,0c0.214-3.183,0.516-6.383,0.891-9.591c0.588-4.737,1.424-9.412,2.473-14.02   c0,0,0,0,0,0.001c2.193-21.633,6.414-40.397,11.984-56.678c-0.146,0.563-0.303,1.133-0.44,1.689   c9.241-37.675,40.53-90.522,95.389-109.539c39.582-13.72,75.903,13.004,74.183,52.364C339.61,108.792,241.88,211.44,225.452,251.4z   " class="fil2" />
	<path d="M126.982,147.249c0.082-0.012,0.162-0.026,0.244-0.038C127.144,147.222,127.063,147.237,126.982,147.249z" class="fil2" />
	<path d="M129.557,146.967c0.147-0.01,0.293-0.022,0.44-0.03C129.85,146.945,129.704,146.957,129.557,146.967z" class="fil2" />
	<path d="M205.322,324.205c0-0.031,0.001-0.063,0.002-0.094C205.323,324.142,205.322,324.174,205.322,324.205z" class="fil2" />
	<path d="M180.679,453.887c-0.302-0.004-0.606-0.018-0.912-0.043C180.072,453.868,180.376,453.883,180.679,453.887z" class="fil2" />
	<path d="M128.248,147.085c0.118-0.013,0.236-0.028,0.355-0.04C128.484,147.057,128.366,147.072,128.248,147.085z" class="fil2" />
	<path d="M132.266,146.888c0.188,0.002,0.375,0.004,0.563,0.01C132.641,146.893,132.453,146.891,132.266,146.888z" class="fil2" />
	<path d="M130.9,146.901c0.169-0.005,0.337-0.011,0.506-0.013C131.237,146.89,131.069,146.896,130.9,146.901z" class="fil2" />
	<path d="M282.626,45.436c1.295,0.277,2.591,0.583,3.886,0.904C285.216,46.019,283.921,45.713,282.626,45.436z" class="fil2" />
	<path d="M359.051,345.677c-1.485,1.104-2.954,2.114-4.403,3.033C356.097,347.791,357.566,346.781,359.051,345.677z" class="fil2" />
	<path d="M287.381,46.559c1.269,0.324,2.538,0.663,3.807,1.03C289.919,47.222,288.65,46.883,287.381,46.559z" class="fil2" />
	<path d="M278.722,44.674c1.294,0.233,2.589,0.482,3.884,0.758C281.311,45.155,280.017,44.907,278.722,44.674z" class="fil2" />
	<path d="M291.247,47.606c1.278,0.371,2.555,0.771,3.831,1.186C293.802,48.377,292.525,47.977,291.247,47.606z" class="fil2" />
	<path d="M296.01,49.099c1.277,0.426,2.554,0.866,3.829,1.337C298.564,49.965,297.287,49.525,296.01,49.099z" class="fil2" />
	<path d="M125.793,147.448c0.025-0.005,0.049-0.01,0.074-0.015C125.842,147.437,125.818,147.443,125.793,147.448z" class="fil2" />
	<path d="M158.991,345.126c0.286-0.144,0.567-0.297,0.839-0.466C159.558,344.828,159.278,344.982,158.991,345.126z" class="fil2" />
	<path d="M319.528,354.085c-0.216-0.2-0.408-0.407-0.571-0.619C319.12,353.678,319.312,353.885,319.528,354.085z" class="fil2" />
	<path d="M333.217,356.791c-0.647,0.069-1.277,0.117-1.89,0.147C331.94,356.908,332.57,356.859,333.217,356.791z" class="fil2" />
	<path d="M331.289,356.94c-0.609,0.029-1.201,0.04-1.775,0.034C330.088,356.98,330.68,356.969,331.289,356.94z" class="fil2" />
	<path d="M337.365,356.113c-0.715,0.156-1.415,0.289-2.1,0.401C335.95,356.403,336.65,356.269,337.365,356.113z" class="fil2" />
	<path d="M279.322,374.658c-0.07,0.049-0.14,0.099-0.211,0.148C279.182,374.757,279.252,374.707,279.322,374.658z" class="fil2" />
	<path d="M335.245,356.518c-0.682,0.111-1.349,0.2-1.999,0.27C333.896,356.718,334.562,356.629,335.245,356.518z" class="fil2" />
	<path d="M320.259,354.668c-0.262-0.182-0.502-0.371-0.715-0.567C319.758,354.297,319.997,354.486,320.259,354.668z" class="fil2" />
	<path d="M323.378,356.113c-0.396-0.121-0.772-0.253-1.126-0.395C322.605,355.86,322.982,355.991,323.378,356.113z" class="fil2" />
	<path d="M329.468,356.973c-0.569-0.007-1.121-0.031-1.654-0.07C328.347,356.943,328.899,356.966,329.468,356.973z" class="fil2" />
	<path d="M324.708,356.46c-0.44-0.097-0.862-0.206-1.262-0.326C323.846,356.255,324.267,356.363,324.708,356.46z" class="fil2" />
	<path d="M322.19,355.692c-0.352-0.143-0.683-0.295-0.991-0.457C321.506,355.397,321.838,355.549,322.19,355.692z" class="fil2" />
	<path d="M326.169,356.725c-0.484-0.07-0.95-0.153-1.395-0.25C325.219,356.572,325.685,356.655,326.169,356.725z" class="fil2" />
	<path d="M327.76,356.899c-0.527-0.04-1.037-0.095-1.526-0.164C326.723,356.804,327.232,356.859,327.76,356.899z" class="fil2" />
	<path d="M194.535,447.703c-0.342,0.277-0.687,0.551-1.033,0.819C193.848,448.254,194.193,447.98,194.535,447.703z" class="fil2" />
	<path d="M187.996,452.076c-0.348,0.172-0.698,0.333-1.052,0.484C187.297,452.409,187.648,452.248,187.996,452.076z" class="fil2" />
	<path d="M339.576,355.568c-0.746,0.205-1.478,0.385-2.195,0.542C338.098,355.953,338.83,355.773,339.576,355.568z" class="fil2" />
	<path d="M189.047,451.52c-0.308,0.172-0.619,0.337-0.931,0.494C188.428,451.858,188.738,451.692,189.047,451.52z" class="fil2" />
	<path d="M184.456,453.418c-0.326,0.085-0.654,0.157-0.984,0.22C183.802,453.575,184.13,453.503,184.456,453.418z" class="fil2" />
	<path d="M183.19,453.689c-0.328,0.056-0.658,0.102-0.99,0.135C182.532,453.791,182.862,453.745,183.19,453.689z" class="fil2" />
	<path d="M191.293,450.13c-0.675,0.458-1.359,0.887-2.053,1.282C189.934,451.018,190.618,450.588,191.293,450.13z" class="fil2" />
	<path d="M185.63,453.065c-0.356,0.121-0.714,0.233-1.076,0.33C184.916,453.298,185.274,453.186,185.63,453.065z" class="fil2" />
	<path d="M266.029,384.187c-0.258,0.189-0.515,0.377-0.773,0.566C265.513,384.564,265.771,384.376,266.029,384.187z" class="fil2" />
	<path d="M247.745,398.101c-0.075,0.059-0.15,0.119-0.225,0.178C247.595,398.22,247.67,398.161,247.745,398.101z" class="fil2" />
	<path d="M193.485,448.535c-0.349,0.27-0.701,0.535-1.055,0.794C192.785,449.071,193.136,448.806,193.485,448.535z" class="fil2" />
	<path d="M182.079,453.839c-0.368,0.033-0.739,0.048-1.113,0.051C181.34,453.887,181.711,453.872,182.079,453.839z" class="fil2" />
	<path d="M192.427,449.332c-0.328,0.24-0.659,0.473-0.992,0.701C191.768,449.805,192.099,449.572,192.427,449.332z" class="fil2" />
	<path d="M254.42,349.587c0.317-0.072,0.634-0.145,0.951-0.219C255.055,349.441,254.738,349.515,254.42,349.587z" class="fil2" />
	<path d="M377.652,327.073c-0.679,0.873-1.359,1.725-2.039,2.551C376.293,328.797,376.973,327.946,377.652,327.073z" class="fil2" />
	<path d="M205.322,327.907c0.002,0.135,0.005,0.27,0.008,0.404C205.327,328.177,205.324,328.042,205.322,327.907z" class="fil2" />
	<path d="M224.834,353.14c0.758-0.013,1.515-0.027,2.273-0.052C226.35,353.113,225.592,353.128,224.834,353.14z" class="fil2" />
	<path d="M382.538,320.374c-0.7,1.024-1.402,2.015-2.104,2.987C381.137,322.389,381.838,321.398,382.538,320.374z" class="fil2" />
	<path d="M375.438,329.841c-0.713,0.862-1.425,1.695-2.137,2.508C374.012,331.536,374.725,330.703,375.438,329.841z" class="fil2" />
	<path d="M228.512,353.033c0.676-0.028,1.351-0.06,2.026-0.098C229.862,352.973,229.187,353.005,228.512,353.033z" class="fil2" />
	<path d="M380.029,323.92c-0.692,0.948-1.386,1.874-2.08,2.773C378.644,325.794,379.337,324.868,380.029,323.92z" class="fil2" />
	<path d="M206.084,339.372c0.009,0.072,0.016,0.145,0.025,0.218C206.1,339.518,206.093,339.445,206.084,339.372z" class="fil2" />
	<path d="M205.441,331.772c0.003,0.069,0.005,0.139,0.009,0.208C205.446,331.911,205.444,331.841,205.441,331.772z" class="fil2" />
	<path d="M370.654,335.264c-0.714,0.757-1.427,1.49-2.138,2.2C369.228,336.753,369.94,336.021,370.654,335.264z" class="fil2" />
	<path d="M368.352,337.629c-0.725,0.72-1.449,1.414-2.171,2.087C366.902,339.043,367.626,338.349,368.352,337.629z" class="fil2" />
	<path d="M205.683,335.466c0.018,0.218,0.038,0.436,0.058,0.654C205.721,335.902,205.701,335.684,205.683,335.466z" class="fil2" />
	<path d="M372.944,332.753c-0.715,0.808-1.43,1.596-2.143,2.356C371.515,334.35,372.229,333.562,372.944,332.753z" class="fil2" />
	<path d="M384.676,317.147c-0.667,1.033-1.335,2.047-2.005,3.031C383.34,319.193,384.009,318.18,384.676,317.147z" class="fil2" />
	<path d="M206.599,342.917c0.043,0.258,0.087,0.515,0.132,0.772C206.686,343.432,206.641,343.174,206.599,342.917z" class="fil2" />
	<path d="M232.055,352.842c0.634-0.042,1.267-0.09,1.901-0.14C233.322,352.752,232.688,352.8,232.055,352.842z" class="fil2" />
	<path d="M257.753,348.793c0.233-0.059,0.466-0.12,0.699-0.18C258.219,348.672,257.986,348.734,257.753,348.793z" class="fil2" />
	<path d="M223.67,353.16c-1.147,0.01-2.293,0.008-3.439-0.01C221.377,353.169,222.523,353.17,223.67,353.16z" class="fil2" />
	<path d="M384.207,311.905c0.087-0.038,0.175-0.074,0.262-0.112C384.382,311.831,384.294,311.868,384.207,311.905z" class="fil2" />
	<path d="M133.656,146.933c0.201,0.011,0.401,0.022,0.602,0.036C134.057,146.955,133.856,146.943,133.656,146.933z" class="fil2" />
	<path d="M247.76,350.929c0.367-0.065,0.734-0.127,1.101-0.195C248.494,350.801,248.127,350.864,247.76,350.929z" class="fil2" />
	<path d="M321.148,355.207c-0.307-0.163-0.593-0.334-0.854-0.514C320.555,354.873,320.841,355.044,321.148,355.207z" class="fil2" />
	<path d="M235.548,352.568c0.601-0.055,1.202-0.117,1.802-0.179C236.75,352.451,236.149,352.514,235.548,352.568z" class="fil2" />
	<path d="M244.894,351.41c0.212-0.033,0.425-0.062,0.637-0.096C245.32,351.348,245.107,351.376,244.894,351.41z" class="fil2" />
	<path d="M387.076,313.31c-0.673,1.111-1.348,2.196-2.024,3.255C385.728,315.507,386.403,314.421,387.076,313.31z" class="fil2" />
	<path d="M389.557,309.083c-0.69,1.218-1.384,2.397-2.08,3.558C388.173,311.48,388.867,310.301,389.557,309.083z" class="fil2" />
	<path d="M239.014,352.214c0.546-0.063,1.09-0.135,1.635-0.205C240.104,352.078,239.559,352.151,239.014,352.214z" class="fil2" />
	<path d="M386.86,310.642c0.135-0.071,0.268-0.145,0.402-0.217C387.129,310.497,386.996,310.571,386.86,310.642z" class="fil2" />
	<path d="M251.079,350.3c0.357-0.072,0.714-0.143,1.071-0.218C251.794,350.157,251.436,350.228,251.079,350.3z" class="fil2" />
	<path d="M145.071,149.508c0.268,0.109,0.536,0.228,0.803,0.344C145.607,149.735,145.34,149.617,145.071,149.508z" class="fil2" />
	<path d="M143.639,148.959c0.259,0.093,0.517,0.194,0.775,0.294C144.156,149.153,143.898,149.052,143.639,148.959z" class="fil2" />
	<path d="M142.204,148.477c0.252,0.079,0.504,0.164,0.756,0.249C142.708,148.641,142.456,148.556,142.204,148.477z" class="fil2" />
	<path d="M146.497,150.124c0.283,0.129,0.564,0.269,0.845,0.406C147.061,150.393,146.78,150.253,146.497,150.124z" class="fil2" />
	<path d="M140.768,148.061c0.245,0.066,0.491,0.137,0.736,0.208C141.258,148.198,141.013,148.127,140.768,148.061z" class="fil2" />
	<path d="M147.916,150.809c0.311,0.159,0.621,0.329,0.93,0.497C148.537,151.138,148.228,150.968,147.916,150.809z" class="fil2" />
	<path d="M137.9,147.423c0.232,0.042,0.464,0.087,0.696,0.133C138.364,147.51,138.132,147.464,137.9,147.423z" class="fil2" />
	<path d="M135.061,147.036c0.212,0.02,0.424,0.042,0.636,0.066C135.485,147.078,135.273,147.056,135.061,147.036z" class="fil2" />
	<path d="M365.921,339.956c-1.488,1.376-2.967,2.653-4.433,3.835C362.953,342.609,364.432,341.332,365.921,339.956z" class="fil2" />
	<path d="M139.333,147.71c0.239,0.053,0.477,0.111,0.716,0.17C139.81,147.821,139.572,147.763,139.333,147.71z" class="fil2" />
	<path d="M149.326,151.565c0.468,0.264,0.933,0.538,1.397,0.825C150.26,152.103,149.794,151.829,149.326,151.565z" class="fil2" />
	<path d="M136.476,147.199c0.223,0.03,0.446,0.064,0.669,0.099C136.922,147.262,136.699,147.229,136.476,147.199z" class="fil2" />
	<path d="M222.525,256.718c0.107-0.199,0.211-0.4,0.319-0.599C222.735,256.318,222.632,256.519,222.525,256.718z" class="fil2" />
	<path d="M213.678,276.66c0.033-0.093,0.069-0.185,0.102-0.277C213.747,276.475,213.711,276.567,213.678,276.66z" class="fil2" />
	<path d="M219.966,261.712c0.136-0.278,0.27-0.556,0.408-0.833C220.236,261.156,220.102,261.434,219.966,261.712z" class="fil2" />
	<path d="M215.57,271.641c0.098-0.247,0.201-0.492,0.3-0.738C215.771,271.149,215.669,271.394,215.57,271.641z" class="fil2" />
	<path d="M217.661,266.665c0.129-0.293,0.261-0.584,0.392-0.876C217.922,266.081,217.791,266.373,217.661,266.665z" class="fil2" />
	<path d="M205.436,320.242c-0.001,0.019-0.001,0.038-0.002,0.058C205.435,320.281,205.435,320.261,205.436,320.242z" class="fil2" />
	<path d="M351.789,332.719l-20.072,8.033l-4.694,5.529l-0.28,3.504c9.147-10.033,15.699-0.944,15.699-0.944   l2.314-4.229c0.07-0.137,0.156-0.266,0.233-0.399c4.967-8.508,25.929-10.02,29.971-23.836c-2.268,1.807-6.607,5.499-6.607,5.499   L351.789,332.719z" class="fil3" />
	<path d="M333.387,266.091c4.235,1.418,11.799-9.798,16.901-25.052c5.099-15.254,5.801-28.769,1.566-30.186   c-4.233-1.418-11.799,9.799-16.899,25.053C329.855,251.159,329.152,264.675,333.387,266.091z" class="fil1" />
	
		<ellipse transform="matrix(-0.3171 0.9484 -0.9484 -0.3171 698.8299 57.9812)" cx="328.54" cy="280.585" rx="6.391" ry="4.235" class="fil1" />
	<path d="M150.539,336.402c7.828-2.097,8.219-11.604,8.219-11.604c-14.504,13.537-30.887-3.539-51.376-23.82   c-20.883-20.67-28.416-55.98-28.172-80.032C63.674,298.561,134.038,340.818,150.539,336.402z" class="fil3" />
	<path d="M215.519,341.302c4.413,6.283,13.115,2.899,13.115,2.899c-14.082-0.967-13.072-79.064,72.823-143.625   C215.077,234.549,208.929,331.923,215.519,341.302z" class="fil3" />
	<path d="M361.212,86.682c-4.037-3.384-7.534-6.567-11.737-9.633c-15.473-10.569-31.228-20.837-49.635-26.612   c-1.276-0.471-2.552-0.911-3.829-1.337c-0.31-0.104-0.621-0.206-0.932-0.307c-1.277-0.415-2.554-0.815-3.831-1.186   c-0.02-0.006-0.04-0.011-0.06-0.017c-1.269-0.367-2.538-0.706-3.807-1.03c-0.29-0.074-0.579-0.147-0.869-0.219   c-1.295-0.321-2.591-0.627-3.886-0.904c-0.006-0.001-0.013-0.003-0.019-0.004c-1.295-0.277-2.589-0.525-3.884-0.758   c-0.255-0.046-0.51-0.092-0.766-0.136c-2.628-0.457-5.254-0.825-7.877-1.107c-0.225-0.024-0.449-0.049-0.674-0.072   c-1.329-0.136-2.657-0.254-3.983-0.346c13.258,3.505,75.513,22.3,109.639,73.887c61.496,92.961-30.034,182.044-40.067,213.268   c7.563-14.871,22.628-28.086,32.356-41.866c14.738-20.874,24.982-44.404,32.427-69.749c8.482-39.129,3.95-76.204-16.874-107.856   C375.892,102.268,369.432,93.242,361.212,86.682z" class="fil1" />
	<path d="M352.423,350.063L352.423,350.063C352.423,350.063,352.423,350.063,352.423,350.063   c0.724-0.421,1.454-0.864,2.189-1.33c0.012-0.008,0.024-0.015,0.036-0.023c1.448-0.919,2.918-1.929,4.403-3.033   c0.045-0.033,0.089-0.066,0.134-0.099c0.728-0.544,1.46-1.11,2.195-1.7c0.036-0.029,0.071-0.058,0.107-0.087   c1.466-1.181,2.945-2.459,4.433-3.835c0.087-0.08,0.173-0.16,0.26-0.241c0.722-0.672,1.446-1.366,2.171-2.087   c0.055-0.054,0.11-0.111,0.164-0.166c0.711-0.71,1.424-1.443,2.138-2.2c0.049-0.052,0.098-0.102,0.147-0.154   c0.714-0.76,1.428-1.548,2.143-2.356c0.119-0.134,0.237-0.269,0.356-0.404c0.712-0.813,1.425-1.646,2.137-2.508   c0.059-0.071,0.117-0.145,0.176-0.217c0.68-0.827,1.359-1.678,2.039-2.551c0.099-0.127,0.198-0.252,0.298-0.38   c0.694-0.899,1.387-1.825,2.08-2.773c0.135-0.185,0.27-0.372,0.405-0.559c0.702-0.972,1.404-1.963,2.104-2.987   c0.044-0.064,0.088-0.132,0.132-0.196c0.67-0.984,1.338-1.997,2.005-3.031c0.125-0.194,0.251-0.386,0.376-0.582   c0.677-1.059,1.352-2.144,2.024-3.255c0.134-0.221,0.268-0.446,0.401-0.669c0.696-1.161,1.39-2.34,2.08-3.558   c-0.742,0.479-1.511,0.92-2.294,1.342c-0.134,0.072-0.267,0.146-0.402,0.217c-0.78,0.408-1.577,0.792-2.392,1.151   c-0.087,0.038-0.174,0.075-0.262,0.112c-1.766,0.764-3.603,1.429-5.495,2.019v0C378.339,326.562,356.923,346.096,352.423,350.063z" class="fil1" />
	<path d="M326.632,336.046c-4.363,5.5-9.719,14.765-7.675,17.42c0.163,0.212,0.355,0.418,0.571,0.619   c0.006,0.005,0.011,0.011,0.017,0.016c0.213,0.196,0.453,0.385,0.715,0.567c0.012,0.008,0.023,0.017,0.035,0.025   c0.261,0.179,0.547,0.35,0.854,0.514c0.017,0.009,0.033,0.019,0.051,0.028c0.308,0.161,0.64,0.314,0.991,0.457   c0.021,0.008,0.04,0.017,0.061,0.026c0.354,0.142,0.731,0.273,1.126,0.395c0.023,0.007,0.045,0.014,0.068,0.021   c0.4,0.12,0.822,0.229,1.262,0.326c0.022,0.005,0.044,0.01,0.067,0.015c0.445,0.096,0.911,0.18,1.395,0.25   c0.022,0.003,0.043,0.007,0.064,0.01c0.49,0.069,0.999,0.124,1.526,0.164c0.018,0.001,0.036,0.016,0.055,0.018   c0.533,0.039,1.085,0.083,1.654,0.083c0.015,0,0.031,0,0.046,0c0.574,0,1.166-0.018,1.775-0.047   c0.012-0.001,0.025-0.008,0.037-0.008c0.613-0.03,1.243-0.082,1.89-0.151c0.01-0.001,0.019-0.004,0.029-0.005   c0.65-0.07,1.317-0.16,1.999-0.271c0.007-0.001,0.014-0.003,0.02-0.004c0.685-0.112,1.385-0.245,2.1-0.401   c0.005-0.001,0.01-0.002,0.015-0.003c0.718-0.157,1.45-0.337,2.195-0.542c0.002-0.001,0.004-0.001,0.007-0.002   c0.747-0.205,1.509-0.435,2.283-0.69c0.002-0.001,0.004-0.001,0.006-0.002c0.775-0.256,1.562-0.538,2.362-0.847l0,0l0,0   C337.052,355.472,316.678,357.895,326.632,336.046z" class="fil3" />
	<path d="M214.255,427.792C214.255,427.792,214.255,427.791,214.255,427.792   c10.258-10.368,21.528-20.182,33.266-29.512c0.075-0.06,0.15-0.119,0.225-0.178c5.747-4.563,11.605-9.009,17.511-13.348   c0.258-0.189,0.515-0.378,0.773-0.566c4.345-3.183,8.714-6.31,13.083-9.381c0.07-0.049,0.14-0.099,0.211-0.148   c1.503-1.056,3.006-2.106,4.508-3.149c0,0,0,0,0,0c-13,6.716-24.959,7.668-37.676,16.334   C233.411,396.528,227.786,410.937,214.255,427.792z" class="fil3" />
	<path d="M167.154,436.344c-10.494-18.416,3.021-40.851-7.747-46.727c-11.842-6.46-23.592-32.895-11.411-34.689   c18.159-2.674,15.404,25.915,23.291,36.564c-4.047-15.643,8.237-58.619,15.827-102.69c8.261-47.97,11.897-97.133,7.027-110.669   c-5.651-15.704-25.659-2.826-33.564-37.831c-9.686-42.9,68.319-89.775,109.536-89.775c-36.578-4.711-74.38,11.907-102.759,33.876   c-31.472,24.363-51.203,52.017-57.214,71.212c0,0,0,0,0,0c4.077-4.168,9.563-7.019,15.654-8.167   c0.025-0.005,0.049-0.01,0.074-0.015c0.369-0.069,0.741-0.128,1.115-0.184c0.082-0.012,0.162-0.026,0.244-0.038   c0.339-0.048,0.68-0.088,1.022-0.126c0.118-0.013,0.236-0.028,0.355-0.04c0.317-0.031,0.636-0.055,0.955-0.078   c0.147-0.01,0.293-0.022,0.44-0.03c0.3-0.017,0.601-0.027,0.903-0.036c0.169-0.005,0.337-0.011,0.506-0.013   c0.286-0.004,0.572-0.003,0.859,0.001c0.188,0.002,0.375,0.004,0.563,0.01c0.275,0.008,0.551,0.02,0.826,0.035   c0.201,0.011,0.401,0.022,0.602,0.036c0.267,0.019,0.535,0.042,0.803,0.067c0.212,0.02,0.424,0.042,0.636,0.066   c0.259,0.029,0.519,0.062,0.779,0.097c0.223,0.03,0.446,0.064,0.669,0.099c0.252,0.039,0.503,0.081,0.755,0.126   c0.232,0.042,0.464,0.087,0.696,0.133c0.245,0.049,0.491,0.099,0.737,0.154c0.239,0.053,0.477,0.111,0.716,0.17   c0.24,0.059,0.479,0.117,0.719,0.181c0.245,0.066,0.491,0.137,0.736,0.208c0.234,0.068,0.467,0.135,0.7,0.208   c0.252,0.079,0.504,0.164,0.756,0.249c0.227,0.076,0.453,0.151,0.68,0.232c0.259,0.093,0.517,0.194,0.775,0.294   c0.219,0.084,0.438,0.166,0.656,0.255c0.268,0.109,0.536,0.228,0.803,0.344c0.208,0.091,0.416,0.177,0.623,0.272   c0.283,0.129,0.564,0.269,0.845,0.406c0.191,0.093,0.383,0.182,0.573,0.279c0.311,0.159,0.621,0.329,0.93,0.497   c0.16,0.087,0.32,0.168,0.48,0.258c0.468,0.264,0.933,0.538,1.397,0.825c21.443,13.298,39.172,49.227,31.777,101.147   c0,0-0.003-0.073-0.009-0.18c-0.233-4.709-6.227-111.022-72.712-96.515c-1.661,5.774-2.03,10.727-1.042,14.521   c0.269,0.152,0.542,0.297,0.809,0.451c14.281,1.137,40.017,18.258,56.677,57.129c20.034,46.746,10.444,89.416,6.389,102.119   c-4.188,13.117-10.472,13.824-12.779,13.596h0c-0.001,0.001-0.002,0.001-0.003,0.002c-0.271,0.168-0.553,0.322-0.839,0.466   c-0.185,0.093-0.374,0.18-0.564,0.263c-0.218,0.096-0.44,0.183-0.664,0.267c-0.239,0.089-0.48,0.172-0.724,0.248   c-0.253,0.079-0.508,0.152-0.766,0.217c-0.146,0.037-0.292,0.076-0.44,0.109c-0.379,0.086-0.761,0.157-1.143,0.218   c-0.106,0.017-0.213,0.031-0.319,0.046c-0.418,0.059-0.835,0.11-1.25,0.143c-10.461-1.086-19.17-6.01-27.563-10.769   c-0.798-0.011-1.738,0.869-1.321,1.849c16.125,26.677,29.478,54.973,34.936,84.763c3.464,10.611,4.414,24.824,16.451,30.388   c0.404,0.159,0.804,0.292,1.202,0.412c0.109,0.033,0.218,0.063,0.327,0.094c0.325,0.09,0.648,0.169,0.968,0.234   c0.076,0.016,0.153,0.035,0.229,0.049c0.386,0.072,0.768,0.126,1.148,0.165c0.09,0.009,0.179,0.014,0.268,0.021   c0.306,0.025,0.61,0.039,0.912,0.043c0.096,0.001,0.192,0.004,0.287,0.003c0.374-0.003,0.745-0.018,1.113-0.051   c0.041-0.004,0.08-0.01,0.121-0.014c0.333-0.033,0.662-0.079,0.99-0.135c0.094-0.016,0.188-0.033,0.282-0.051   c0.33-0.063,0.659-0.135,0.984-0.22c0.033-0.009,0.066-0.015,0.099-0.024c0.362-0.097,0.72-0.208,1.076-0.33   c0.078-0.027,0.156-0.055,0.233-0.083c0.299-0.107,0.596-0.221,0.891-0.344c0.063-0.026,0.126-0.051,0.189-0.078   c0.353-0.151,0.704-0.312,1.052-0.484c0.04-0.02,0.08-0.041,0.12-0.061c0.313-0.157,0.623-0.322,0.931-0.494   c0.064-0.036,0.129-0.072,0.193-0.108c0.694-0.395,1.378-0.824,2.053-1.282c0.048-0.032,0.095-0.065,0.143-0.098   c0.333-0.228,0.664-0.461,0.992-0.701c0.001-0.001,0.002-0.002,0.003-0.002c0.354-0.259,0.706-0.524,1.055-0.794   c0.005-0.004,0.011,0.14,0.016,0.136c0.347-0.269,0.691-0.671,1.033-0.671c0,0,0.001,0,0.001,0l0,0   C190.438,448,175.59,451.146,167.154,436.344z" class="fil3" />
	<path d="M258.452,348.613c-0.233,0.06-0.466,0.121-0.699,0.18c-0.792,0.199-1.586,0.389-2.381,0.575   c-0.317,0.074-0.634,0.147-0.951,0.219c-0.756,0.171-1.512,0.337-2.27,0.496c-0.357,0.075-0.714,0.146-1.071,0.218   c-0.739,0.149-1.478,0.296-2.219,0.433c-0.367,0.068-0.734,0.13-1.101,0.195c-0.742,0.132-1.484,0.265-2.228,0.385   c-0.212,0.034-0.425,0.063-0.637,0.096c-1.413,0.222-2.828,0.419-4.245,0.599c-0.545,0.069-1.09,0.142-1.635,0.205   c-0.554,0.064-1.109,0.118-1.663,0.176c-0.601,0.062-1.201,0.124-1.802,0.179c-0.531,0.048-1.062,0.091-1.593,0.133   c-0.633,0.051-1.267,0.098-1.901,0.14c-0.505,0.034-1.011,0.065-1.517,0.093c-0.675,0.038-1.351,0.069-2.026,0.098   c-0.468,0.02-0.936,0.04-1.404,0.055c-0.758,0.024-1.515,0.039-2.273,0.052c-0.388,0.006-0.776,0.017-1.165,0.02   c-1.147,0.01-2.293,0.008-3.439-0.01c-5.091-0.349-10.574-1.104-12.861-6.153c-0.238-1.096-0.445-2.201-0.639-3.309   c-0.045-0.257-0.089-0.514-0.132-0.772c-0.182-1.104-0.349-2.211-0.49-3.326c-0.009-0.072-0.016-0.145-0.025-0.218   c-0.134-1.079-0.246-2.164-0.343-3.253c-0.019-0.218-0.04-0.435-0.058-0.654c-0.096-1.157-0.176-2.319-0.234-3.486   c-0.003-0.069-0.005-0.139-0.009-0.208c-0.055-1.149-0.09-2.303-0.111-3.461c-0.002-0.135-0.006-0.269-0.008-0.404   c-0.018-1.23-0.018-2.464,0-3.702c0-0.031,0.001-0.063,0.002-0.094c0.019-1.267,0.056-2.537,0.11-3.811   c0.001-0.019,0.001-0.038,0.002-0.058c0.055-1.302,0.128-2.607,0.216-3.915c0,0,0,0,0,0c-5.955,29.179-1.116,43.569-6.211,65.117   c8.184-3.255,5.213-15.336,15.884-20.253c9.06-4.174,32.82,0.616,54.876-16.129l0,0   C266.331,346.416,262.409,347.597,258.452,348.613z" class="fil3" />
	<path d="M326.741,141.971c-34.985,8.099-80.457,46.06-106.181,95.758c0.136-0.556,0.294-1.126,0.44-1.689   c-5.57,16.28-9.791,35.044-11.984,56.678c0,0,0,0,0-0.001c1.244-5.462,2.805-10.822,4.663-16.057   c0.033-0.093,0.069-0.185,0.102-0.277c0.569-1.593,1.166-3.173,1.79-4.741c0.098-0.247,0.201-0.492,0.3-0.738   c0.575-1.423,1.172-2.836,1.791-4.238c0.129-0.293,0.261-0.584,0.392-0.876c0.616-1.37,1.254-2.729,1.912-4.078   c0.136-0.278,0.27-0.556,0.408-0.833c0.694-1.399,1.412-2.786,2.151-4.161c0.107-0.199,0.211-0.4,0.319-0.599   c0.848-1.56,1.721-3.105,2.625-4.631l0,0c-0.006-0.03-0.01-0.059-0.016-0.089c16.428-39.96,114.158-142.608,164.68-70.846   C381.847,148.282,356.625,135.052,326.741,141.971z" class="fil3" />
</g>
<g>
</g>
<g>
</g>
<g>
</g>
<g>
</g>
<g>
</g>
<g>
</g>
<g>
</g>
<g>
</g>
<g>
</g>
<g>
</g>
<g>
</g>
<g>
</g>
<g>
</g>
<g>
</g>
<g>
</g>
</svg>